<svg xmlns="http://www.w3.org/2000/svg" xmlns:xlink="http://www.w3.org/1999/xlink" version="1.1" x="0px" y="0px" width="293px" height="152px" viewBox="0 0 293 152" enable-background="new 0 0 293 152" xml:space="preserve"><path d="M144.793 147.789c8.121-0.033 14.234-4.105 14.244-11.44l0 0c0.049-6.547-6.814-8.435-12.996-9.632l0 0 c-5.067-0.977-9.623-2.84-9.673-7.176l0 0c0-0.11 0.002-0.231 0.01-0.348l0 0c0.26-3.399 4.21-5.277 7.873-5.288l0 0 c3.546-0.011 6.2 1.5 8.6 4.312l0 0l3.701-2.919c-5.514-3.736-8.156-3.805-12.278-3.819l0 0 c-2.31-0.004-5.753 0.562-8.554 2.168l0 0c-2.804 1.619-4.972 4.184-4.98 8.372l0 0c0 0.1 0 0.1 0 0.17l0 0 c0.045 7.5 8.8 8.9 11.7 9.424l0 0c3.423 0.7 10 2.2 10.1 7.919l0 0c-0.057 3.823-4.291 5.851-7.73 5.855l0 0 c0 0-0.015 0-0.053 0.004l0 0c-2.997-0.007-7.674-0.635-10.849-5.121l0 0l-4.046 3.1 C133.096 146.1 136.9 147.8 144.8 147.789L144.793 147.789z"/><path d="M49.02 146.877h23.193v-2.174H55.935V130.61v-0.467h13.059v-2.027l-13.059 0.051V114.2h16.278v-2.153H49.02V146.877 L49.02 146.877z"/><path d="M215.605 129.592c0.068 13.1 6.7 18.1 17.4 18.139l0 0c7.943-0.007 11.674-1.866 13.592-4.478l0 0 c1.057-1.461 1.344-2.571 1.393-4.051l0 0h-4.637c-0.262 3.953-3.711 7.144-8.316 7.15l0 0c-2.746 0-5.836-0.416-8.229-2.749l0 0 c-2.389-2.333-3.98-6.463-3.98-13.668l0 0c0.002-7.729 1.549-12.073 3.717-14.515l0 0c2.17-2.441 4.916-2.854 7.006-2.85l0 0 c2.145 0 4.3 0.7 5.9 2.162l0 0c1.531 1.4 2.6 3.5 2.7 6.326l0 0h5.961c-0.229-5.14-3.426-9.494-14.518-9.56l0 0 C222.197 111.6 215.7 116.4 215.6 129.592L215.605 129.592z"/><path d="M15.46 146.877h6.416l12.988-34.827h-3.393l-10.731 30.14l-0.459 1.288l-10.254-31.431H3L15.46 146.877L15.46 146.877z"/><path d="M100.812 131.627l9.379 15.25h7.04l-9.521-15.458l-0.3-0.488l0.538-0.195c3.237-1.184 7.717-3.74 7.712-9.39l0 0 c-0.022-5.608-4.239-9.241-15.561-9.296l0 0l-13.233-0.003v34.83h6.909v-15.25H100.812L100.812 131.627z M98.508 130.1 l-4.733-0.009v-16.329h5.672c5.532 0 9.2 3.5 9.2 7.751l0 0c-0.011 4.214-3.75 8.578-10.095 8.587l0 0"/><path d="M194.564 134.688l5 12.188h6.533l-14.83-34.83h-6.457l-16.127 34.83h3.061l5.611-11.921l0.123-0.268H194.564 L194.564 134.688z M178.369 132.725l7.725-16.54l0.449-0.957l7.24 17.497H178.369L178.369 132.725z"/><path d="M263.265 146.881h23.195v-2.178h-16.285v-14.095v-0.467h13.062v-2.025l-13.062 0.051v-13.969h16.289v-2.151h-23.199 V146.881L263.265 146.881z"/><path d="M120.973 78.703h0.025v-0.051h-0.025V78.703z M168.564 14.508h-0.025v-0.051h0.025V14.508z M159.392 14.7 c0.42 0.5 0.6 0.9 1.1 1.412c0.83 0.4 1.6 0.9 2.4 1.396c0.344-0.099 0.719-0.183 1.062-0.222 C162.488 16.3 161 15.4 159.4 14.708z M179.242 40.637c-0.248 0.124-0.498 0.24-0.748 0.3 c0.389 2.3 0.5 4.6 0.4 6.959h0.803C179.841 45.4 179.7 43 179.2 40.637z M180.777 40.2 c0.357 1.9 0.6 3.9 0.6 5.905l0.752-0.802c-0.018-1.507-0.213-2.892-0.412-4.293 C181.347 40.8 181 40.5 180.8 40.23z M186.65 40.731c-0.207 0.258-0.566 0.446-0.625 0.8 c0.029 0.3 0.1 0.5 0.1 0.781c-0.5 0.15-1.076 0.2-1.629 0.226c-0.061-0.354-0.119-0.715-0.176-1.079 c-0.238-0.005-0.504-0.024-0.742-0.085c0.084 0.7 0.1 1.4 0.2 2.016c1.002 0.1 2.105-0.1 3.158-0.175 C186.859 42.4 186.8 41.6 186.7 40.731z M180.945 24.708c-0.596 0.369-1.201 0.723-1.811 1.1 c0.223 0.2 0.4 0.4 0.6 0.56l0.811-0.456h0.15c0.525 0.7 0.9 1.6 1.4 2.331c0.031 0.1 0.1 0.1 0.1 0.2 c0.729 0.6 1.2 1.5 1.8 2.287C183.179 28.6 182.2 26.6 180.9 24.708z M173.425 22.602l1.18-1.027h0.125 c0.951 0.8 1.6 2.1 2.4 2.908l2.48-1.68l0.076-0.176c-1.529-2.155-3.26-4.26-5.188-6.141l-3.484 3.5 c-1.277-1.203-2.656-2.355-3.936-3.434l0.953-1.277l0.15 0.025c0.826 0.6 1.8 1.4 2.5 2.079h0.225l1.98-2.23l0.025-0.15 c-1.98-1.679-4.035-3.258-6.189-4.536c-0.902 1.354-1.68 2.832-2.633 4.186c-1.402-0.902-2.906-1.529-4.361-2.306l0.502-1.153 c0.076-0.125 0.076-0.326 0.25-0.351c1.129 0.4 2.2 1.1 3.3 1.579c0.5-0.927 1.027-1.88 1.527-2.807l-0.074-0.075 c-2.281-1.203-4.562-2.28-7.018-3.007c-0.576 1.529-0.979 3.133-1.555 4.662c-1.178-0.376-2.381-0.677-3.582-0.978 c-0.428-0.15-0.902-0.175-1.33-0.326c0.127-0.551 0.127-1.128 0.326-1.629c0.527 0.1 1.1 0.1 1.5 0.3 c0.701 0.1 1.4 0.4 2.1 0.451c0.275-1.002 0.576-2.005 0.877-3.007c-2.154-0.626-4.385-1.078-6.691-1.353 c-0.25 0-0.4-0.125-0.65-0.025c-0.266 1.493-0.301 3.146-0.549 4.674c0.188 0.3 0.4 0.7 0.6 0.9 c0.242-1.596 0.416-3.214 0.637-4.809c1.93 0.2 3.8 0.6 5.6 1.078c-0.1 0.551-0.275 1.078-0.426 1.6 c-1.152-0.3-2.381-0.476-3.559-0.777l-0.1 0.05c-0.125 1.103-0.4 2.18-0.502 3.258c1.027 0.2 2.1 0.3 3.1 0.6 c1.051 0.3 2.1 0.6 3.2 0.953l0.102-0.05l1.604-4.511l0.125-0.075c1.404 0.5 2.8 1.1 4.1 1.7 c0.402 0.2 0.9 0.4 1.2 0.727l-0.727 1.378c-1.178-0.476-2.281-1.127-3.459-1.604c-0.502 0.977-0.828 2.03-1.229 3 c1.955 0.8 3.8 1.9 5.6 2.957l0.125-0.101c0.729-1.378 1.654-2.681 2.508-4.009h0.199c1.58 1 3.1 2.1 4.5 3.4 v0.15c-0.275 0.376-0.627 0.827-0.979 1.153c-1.002-0.752-2.004-1.504-2.932-2.206c-0.652 0.877-1.254 1.779-1.879 2.7 l0.15 0.175c1.754 1.2 3.3 2.6 4.8 4.086c1.203-1.027 2.256-2.23 3.484-3.334l0.176-0.024 c1.453 1.4 2.9 3.1 3.9 4.837c-0.426 0.351-0.877 0.701-1.354 0.902c-0.826-1.027-1.504-2.105-2.455-3.058l-2.406 2.1 c0.109 0.1 0.2 0.3 0.3 0.398c0.412 0.2 0.9 0.2 1.3 0.389C173.781 23 173.6 22.8 173.4 22.602z M179.822 45.271c-0.275 0-0.602-0.024-0.828 0.025c0.176 11.228-4.486 21.127-13.082 28.094c-0.779 0.595-1.572 1.157-2.377 1.7 c-0.102 0.377-0.17 0.77-0.279 1.143c3.34-2.117 6.385-4.831 9.023-8.096C177.24 61.6 180 53.8 179.8 45.271z M110.543 44.648l-0.774-0.482c-0.395 6.2 0.7 10.9 2.4 15.215c2.41 6.5 7.3 12.4 13.2 16.4 c-0.119-0.367-0.223-0.734-0.257-1.104C115.776 68.1 109.8 56.7 110.5 44.648z M154.791 79.3 c-6.238 1.936-13.656 1.918-19.971 0.082c-0.418 0.135-0.836 0.307-1.253 0.449c0.884 0.3 1.8 0.5 2.7 0.8 c6.811 1.6 13.5 1.2 19.674-0.857C155.513 79.6 155.1 79.5 154.8 79.322z M189.345 45.271h-0.803 c0.051 7.569-1.504 14.46-4.686 20.726c-6.416 13.208-20.125 22.707-34.561 24.109c-1.578 0.176-3.383 0.227-4.962 0.3 c-6.064-0.1-11.653-1.353-16.841-3.559c-16.541-7.066-27.042-23.934-26.49-41.552h-0.878 c-0.226 12.5 4.3 24.1 13.2 33.031c7.469 7.3 16.4 11.5 26.5 12.631c15.839 1.5 30.048-4.711 39.873-16.94 C186.113 65.7 189.5 56.1 189.3 45.271z M186.863 46.674l-4.561-0.025l-0.1-0.074l-0.051-1.304h-0.777v2.105 c1.629 0.1 3.2 0.1 4.8 0.149c0.15 0.854-0.025 1.68-0.051 2.532c-0.174 1.328-0.275 2.782-0.701 4.1 c-0.502-0.1-1.027-0.15-1.504-0.326c0.125-1.328 0.502-2.631 0.477-3.959l-2.18-0.201c-0.326-0.025-0.727-0.074-1.027 0 c-0.227 2.481-0.703 4.711-1.33 7.018c1.555 0.5 3.1 1 4.7 1.429c-0.551 2.104-1.354 4.085-2.307 6 c-0.174 0.051-0.375-0.075-0.551-0.125c-0.275-0.226-0.727-0.226-0.928-0.552c0.502-1.178 1.078-2.306 1.455-3.509 c-1.004-0.375-2.031-0.676-3.008-1.077l-0.1 0.075c-0.828 2.08-1.705 4.16-2.934 6.09v0.226l4.135 2.4 c-0.951 1.88-2.279 3.635-3.684 5.313h-0.199c-0.402-0.351-0.854-0.577-1.129-0.978c0.803-1.053 1.629-2.155 2.406-3.232v-0.126 c-0.828-0.602-1.705-1.103-2.531-1.679h-0.201c-1.328 1.955-2.957 3.809-4.51 5.488c1.053 1.1 2.4 2.4 3.5 3.5 c-1.604 1.704-3.207 3.083-5.037 4.261c-0.352-0.426-0.676-0.827-0.951-1.278c0.35-0.376 0.852-0.651 1.227-0.978 c0.678-0.551 1.404-1.053 1.955-1.729c-0.752-0.828-1.428-1.654-2.154-2.381l-0.652 0.576c-1.529 1.378-3.283 2.431-4.963 3.6 c0.854 1.4 1.8 2.8 2.5 4.21c-1.652 1.104-3.408 1.905-5.188 2.657c-0.35-0.451-0.602-1.028-0.676-1.579 c1.102-0.526 2.23-1.002 3.332-1.579c-0.475-0.978-0.977-1.979-1.527-2.933c-1.904 1.053-3.859 1.83-5.916 2.6 c0.352 1.5 0.9 3 1.4 4.486v0.301c-1.68 0.576-3.383 1.053-5.213 1.303c-0.15-0.525-0.275-1.052-0.35-1.604 c1.051-0.301 2.129-0.526 3.207-0.727l0.15-0.125c-0.301-1.028-0.525-2.08-0.902-3.108c-1.93 0.401-3.91 0.928-6.016 1.1 l-0.199 0.199c0.199 1.5 0.3 3.2 0.5 4.712l-0.125 0.126c-1.754 0.225-3.684 0.225-5.414 0.125L142.83 88 c-0.125-0.525-0.05-1.102 0.051-1.628c1.278-0.05 2.4 0.1 3.634-0.025c0-1.028-0.025-2.155-0.15-3.283 c-1.981 0.075-4.135 0.025-6.116-0.175c-0.25 1.629-0.426 3.282-0.651 4.912c-1.93-0.176-3.784-0.552-5.589-1.078 c0.101-0.552 0.275-1.078 0.426-1.604c1.153 0.3 2.4 0.5 3.6 0.776l0.101-0.05c0.125-1.104 0.401-2.181 0.501-3.258 c-1.027-0.201-2.08-0.301-3.058-0.602c-1.052-0.276-2.104-0.627-3.157-0.953l-0.101 0.051l-1.604 4.511l-0.126 0.1 c-1.403-0.477-2.781-1.078-4.109-1.729c-0.401-0.226-0.853-0.376-1.153-0.727l0.727-1.378c1.179 0.5 2.3 1.1 3.5 1.6 c0.501-0.978 0.827-2.029 1.228-3.032c-1.954-0.802-3.809-1.854-5.613-2.958l-0.125 0.102c-0.728 1.378-1.654 2.681-2.507 4 h-0.2c-1.579-1.004-3.107-2.105-4.536-3.384v-0.15c0.275-0.376 0.627-0.827 0.978-1.153c1.002 0.8 2 1.5 2.9 2.2 c0.651-0.877 1.254-1.778 1.88-2.681l-0.15-0.176c-1.754-1.153-3.283-2.632-4.837-4.085c-1.203 1.027-2.255 2.23-3.483 3.3 l-0.176 0.025c-1.453-1.429-2.856-3.133-3.935-4.837c0.426-0.352 0.877-0.701 1.354-0.902c0.827 1 1.5 2.1 2.5 3.1 l2.406-2.13c-1.479-1.779-2.883-3.709-4.035-5.689l-0.075-0.05l-4.135 2.331h-0.15c-0.526-0.728-0.928-1.555-1.354-2.331 c-0.526-1.128-1.153-2.231-1.403-3.434l1.503-0.552c0.526 1.3 1.1 2.5 1.7 3.684l0.125 0.025l2.782-1.403l0.05-0.125 c-1.053-2.105-2.055-4.235-2.557-6.566c-0.275-0.226-0.576 0.075-0.852 0.101c-1.354 0.326-2.656 0.827-4.035 1 c-0.627-2.256-1.103-4.461-1.328-6.893c0.501-0.149 1.077-0.199 1.629-0.225c0.251 1.5 0.5 3 0.8 4.5 c1.027-0.25 2.08-0.477 3.133-0.627l0.101-0.1c-0.526-2.331-0.853-4.787-0.878-7.293l-0.752 0.8 c0.025 2.1 0.4 3.9 0.6 5.839c-0.501 0.15-1.027 0.301-1.604 0.326l-0.075-0.1c-0.351-1.329-0.45-2.783-0.601-4.161 c-1.003-0.075-2.105 0.101-3.158 0.176c0.275 3 0.8 6.2 1.7 8.946c1.554-0.5 3.107-0.952 4.661-1.402 c0.602 1.8 1.3 3.6 2.1 5.363c-0.526 0.225-0.978 0.65-1.554 0.65c-0.626-1.127-1.077-2.33-1.528-3.508 c-0.752 0.226-1.529 0.477-2.256 0.752c-0.176 0.15-0.477 0.15-0.677 0.325c0.853 2.6 2 5.1 3.5 7.4 c1.378-0.853 2.807-1.63 4.21-2.481l0.101 0.075c0.901 1.6 2 3.1 3.2 4.512l-1.179 1.026h-0.125 c-0.952-0.776-1.579-2.104-2.381-2.907l-2.481 1.68l-0.075 0.176c1.529 2.2 3.3 4.3 5.2 6.14l3.483-3.458 c1.278 1.2 2.7 2.4 3.9 3.434l-0.952 1.277l-0.15-0.025c-0.827-0.626-1.755-1.378-2.531-2.08h-0.226l-1.98 2.2 l-0.024 0.15c1.979 1.7 4 3.3 6.2 4.537c0.901-1.354 1.679-2.832 2.631-4.186c1.403 0.9 2.9 1.5 4.4 2.3 l-0.502 1.152c-0.075 0.126-0.075 0.326-0.25 0.351c-1.128-0.426-2.181-1.053-3.258-1.578c-0.502 0.927-1.028 1.879-1.529 2.8 l0.075 0.075c2.28 1.2 4.6 2.3 7 3.007c0.576-1.528 0.978-3.133 1.554-4.661c1.178 0.4 2.4 0.7 3.6 1 c0.426 0.1 0.9 0.2 1.3 0.326c-0.126 0.551-0.126 1.127-0.326 1.629c-0.526-0.051-1.053-0.15-1.528-0.275 c-0.702-0.101-1.379-0.401-2.056-0.451c-0.275 1.002-0.576 2.005-0.877 3.007c2.155 0.6 4.4 1.1 6.7 1.4 c0.251 0 0.4 0.1 0.7 0.025c0.276-1.554 0.301-3.284 0.577-4.862c1.554 0.1 3.1 0.1 4.7 0.176l0.051 0.1 c0.049 0.5 0.1 1.2 0 1.629c-0.953 0.126-2.231 0.024-3.258-0.024c-0.101 0.024-0.275 0-0.226 0.1 c0.05 0.977-0.226 2.055-0.126 3.057c2.406 0.2 4.9 0.1 7.268-0.1l0.051-0.101c-0.127-1.604-0.426-3.233-0.477-4.862 c0.928-0.176 1.904-0.275 2.832-0.501c0.727-0.024 1.379-0.376 2.105-0.376l0.35 1.555c-0.426 0.225-0.902 0.324-1.377 0.4 c-0.652 0.2-1.379 0.2-2.031 0.451c0.326 1 0.4 2.1 0.6 3.082c2.406-0.351 4.762-1.027 7.068-1.729 c-0.451-1.604-1.053-3.107-1.529-4.688c1.604-0.626 3.107-1.277 4.688-2.004c0.25 0.5 0.6 0.9 0.8 1.5 c-1.053 0.627-2.205 1.078-3.309 1.555l-0.025 0.1c0.326 1 0.8 2 1.2 2.957c2.381-0.952 4.637-2.205 6.918-3.509 v-0.05c-0.852-1.379-1.68-2.782-2.557-4.16c1.529-1.003 2.982-2.18 4.436-3.309c0.377 0.4 0.7 0.7 1 1.178v0.126 c-0.926 0.852-1.979 1.628-3.006 2.381v0.226l1.678 2.455h0.15c2.156-1.629 4.387-3.282 6.291-5.388 c-1.152-1.328-2.33-2.256-3.459-3.483l0.451-0.502c1.127-1.252 2.205-2.631 3.258-3.934l1.254 0.877l0.025 0.1 c-0.727 1.078-1.68 2.131-2.381 3.209c0.701 0.7 1.6 1.3 2.3 2.004h0.125c1.377-1.578 2.656-3.207 3.758-4.962 c0.402-0.626 0.777-1.253 1.078-1.905c-1.379-0.826-2.807-1.553-4.211-2.38c0.854-1.655 1.73-3.308 2.381-5.038 c0.553 0.1 1.1 0.4 1.6 0.576c-0.402 1.203-1.027 2.281-1.43 3.459c0.879 0.5 1.8 0.9 2.7 1.379l0.125-0.051 c1.279-2.455 2.182-5.062 3.008-7.693l-0.051-0.075c-1.076-0.326-2.129-0.627-3.232-0.902c-0.477-0.2-1.053-0.176-1.428-0.476 c0.502-1.83 0.801-3.76 1.127-5.689c0.553 0 1.1 0.1 1.6 0.2c-0.076 1.003-0.227 2.03-0.453 3 c0.051 0.326-0.275 0.602-0.074 0.902c1.002 0.2 2.1 0.4 3.1 0.627l0.074-0.075c0.502-2.632 0.902-5.388 0.928-8.271 C187.089 46.7 186.9 46.7 186.9 46.674z M103.329 43.103c0.123-0.929 0.211-1.917 0.397-2.866 c-0.287 0.007-0.543 0.031-0.844 0.111c-0.302 1.932-0.514 3.927-0.531 5.988c0.025 0.1 0.2 0.1 0.3 0.15l4.561 0 l0.101 0.075l0.05 1.303h0.777v-2.104c-1.629-0.075-3.233-0.05-4.812-0.15C103.129 44.8 103.3 44 103.3 43.103z M107.489 42.727c-0.552-0.025-1.077-0.075-1.604-0.201c0.052-0.693 0.143-1.398 0.267-2.091 c-0.131-0.348-0.263-0.645-0.394-1.025c-0.076 0.063-0.156 0.119-0.246 0.152c-0.142 1.262-0.479 2.503-0.454 3.767l2.181 0.2 c0.325 0 0.7 0.1 1.027-0.025c0.061-0.674 0.142-1.326 0.238-1.969c-0.297 0.064-0.552 0.198-0.848 0.2 C107.601 42.1 107.5 42.4 107.5 42.727z M107.038 27.84l-0.125 0.051c-0.994 1.91-1.76 3.911-2.44 5.9 c0.407-0.548 0.743-0.994 1.282-1.431c0.426-1.143 0.917-2.252 1.459-3.336c0.175-0.051 0.4 0.1 0.6 0.1 c0.228 0.2 0.6 0.2 0.8 0.41c0.28-0.27 0.684-0.293 1.008-0.474C108.744 28.7 107.9 28.3 107 27.84z M112.827 20.197h0.201c0.4 0.4 0.9 0.6 1.1 0.978c-0.802 1.053-1.629 2.154-2.405 3.232v0.125 c0.316 0.2 0.6 0.4 1 0.656c0.17-0.235 0.451-0.394 0.716-0.553l-0.506-0.354l-0.025-0.101 c0.728-1.077 1.68-2.13 2.381-3.208c-0.701-0.65-1.554-1.328-2.255-2.004h-0.126c-1.378 1.578-2.656 3.207-3.759 5 c-0.401 0.627-0.777 1.254-1.078 1.905c1.078 0.6 2.2 1.2 3.3 1.853c0.174-0.166 0.396-0.322 0.559-0.551l-2.769-1.627 C110.096 23.6 111.4 21.9 112.8 20.197z M112.753 25.21c-0.012-0.007-0.023-0.015-0.035-0.022 c0.17-0.235 0.451-0.394 0.716-0.553l0.055 0.039C113.231 24.9 112.9 25 112.8 25.21z M126.877 16.5 c-1.956 1.18-3.815 2.561-5.557 4.133c0.327 0 0.6 0.1 1 0.184c0.412-0.365 0.831-0.725 1.264-1.076 c1.045-0.797 2.114-1.539 3.207-2.224C126.656 17.2 126.8 16.9 126.9 16.53z M140.589 11.8 c-3.826 0.459-7.512 1.548-10.953 3.222c0.252 0.2 0.4 0.4 0.6 0.572c0.32-0.152 0.643-0.301 0.968-0.443 c2.351-1.107 4.978-1.875 7.718-2.319C139.345 12.3 140.1 12.2 140.6 11.808z M143.904 9.245l-0.051-0.05 c-0.05-0.526-0.075-1.178 0-1.629c0.953-0.125 2.23-0.025 3.3 0.025c0.1-0.025 0.3 0 0.225-0.15 c-0.051-0.978 0.225-2.055 0.125-3.058c-2.406-0.201-4.862-0.075-7.267 0.1l-0.051 0.101c0.126 1.6 0.4 3.2 0.5 4.9 c-0.928 0.175-1.905 0.276-2.832 0.501c-0.727 0.025-1.379 0.376-2.105 0.376l-0.351-1.554c0.426-0.226 0.902-0.326 1.378-0.401 c0.652-0.201 1.379-0.201 2.03-0.451c-0.325-0.978-0.351-2.08-0.576-3.083c-2.406 0.351-4.762 1.027-7.067 1.7 c0.451 1.6 1.1 3.1 1.5 4.687c-1.604 0.626-3.107 1.278-4.687 2.005c-0.25-0.501-0.602-0.927-0.752-1.454 c1.053-0.626 2.206-1.077 3.309-1.554l0.025-0.1c-0.326-1.002-0.752-2.005-1.153-2.958c-2.381 0.953-4.637 2.206-6.917 3.509v0.05 c0.853 1.4 1.7 2.8 2.6 4.16c-1.529 1.002-2.982 2.18-4.437 3.309c-0.376-0.427-0.701-0.727-1.027-1.178v-0.126 c0.928-0.853 1.98-1.629 3.008-2.381v-0.226l-1.68-2.456h-0.15c-2.155 1.629-4.386 3.283-6.29 5.4 c1.152 1.3 2.3 2.3 3.5 3.484l-0.451 0.501c-0.414 0.46-0.821 0.938-1.224 1.423c0.457-0.17 0.961-0.311 1.476-0.486 c0.435-0.491 0.871-0.972 1.302-1.438c-1.052-1.053-2.405-2.406-3.458-3.484c1.604-1.703 3.208-3.082 5.037-4.26 c0.352 0.4 0.7 0.8 1 1.278c-0.352 0.376-0.853 0.652-1.229 0.978c-0.677 0.551-1.403 1.053-1.955 1.7 c0.752 0.8 1.4 1.7 2.2 2.381l0.651-0.576c1.529-1.379 3.283-2.432 4.963-3.609c-0.853-1.403-1.755-2.781-2.531-4.21 c1.654-1.103 3.408-1.904 5.188-2.656c0.351 0.5 0.6 1 0.7 1.579c-1.103 0.526-2.23 1.002-3.333 1.6 c0.476 1 1 2 1.5 2.932c1.905-1.053 3.859-1.83 5.915-2.556c-0.352-1.529-0.928-2.982-1.379-4.486v-0.3 c1.68-0.577 3.384-1.053 5.213-1.304c0.15 0.5 0.3 1.1 0.4 1.604c-1.052 0.301-2.13 0.526-3.207 0.727l-0.15 0.1 c0.301 1 0.5 2.1 0.9 3.108c1.93-0.401 3.91-0.927 6.016-1.053l0.2-0.2c-0.2-1.529-0.326-3.158-0.451-4.712l0.125-0.125 c1.755-0.226 3.685-0.226 5.414-0.125l0.051 0.075c0.125 0.5 0 1.103-0.051 1.629c-1.278 0.05-2.38-0.125-3.634 0 c0 1 0 2.2 0.1 3.283c1.491-0.057 3.082-0.042 4.6 0.054c0.064-0.245 0.186-0.524 0.189-0.77 C146.583 9.3 145.3 9.3 143.9 9.245z M176.132 14.858c-7.469-7.317-16.391-11.528-26.539-12.63 c-15.839-1.529-30.049 4.711-39.874 16.941c-6.365 8.271-9.799 17.92-9.599 28.72h0.802c-0.05-7.568 1.504-14.459 4.687-20.724 c6.416-13.208 20.125-22.707 34.561-24.11c1.579-0.175 3.383-0.225 4.962-0.275c6.065 0.1 11.7 1.4 16.8 3.6 c16.541 7.1 27 23.9 26.5 41.551h0.877C189.566 35.4 185 23.8 176.1 14.858z M148.376 8.1 c-0.199-0.085-0.414 0.029-0.557 0.157c-0.143 0.415-0.086 0.886-0.242 1.271c-0.158 0.286-0.33 0.614-0.486 0.9 c-0.314 0.486-0.9 0.871-1.371 0.943c-0.444-0.257-0.958-0.329-1.458-0.443c-0.186-0.029-0.443 0-0.614-0.043 c-1.101 0.043-2.243 0.243-3.101 0.743c-0.729 0.386-1.399 0.729-2.085 1.143c-0.571 0.557-1.314 0.8-1.886 1.3 c-0.414 0.243-0.7 0.472-1.101 0.686c-0.999 0.715-2.313 1.243-3.585 1.1c-0.543 0.072-1.015-0.371-1.429-0.6 c-0.086-0.057-0.143-0.143-0.2-0.186c-0.414-0.199-0.457-0.686-0.699-0.985c-0.2-0.1-0.071-0.357-0.243-0.5 c-0.157-0.072-0.371-0.072-0.543 0c-0.7 0.614-1.442 1.1-1.785 1.929c-0.314 0.742-0.687 1.5-0.558 2.4 c-0.3 0.257-0.7 0.4-1.028 0.656c-0.215 0.201-0.558 0.387-0.8 0.644c-0.286 0.313-0.657 0.643-0.857 1 c0.043 0.1-0.071 0.1-0.1 0.143c-0.743 0.015-1.586 0.029-2.4 0.115c-1.114 0.143-2.114 0.643-3.143 1 c-0.985 0.428-1.972 0.899-2.871 1.471c-0.429 0.2-0.829 0.557-1.186 0.828c-0.486 0.457-1.086 0.801-1.515 1.3 c-0.328 0.314-0.629 0.629-0.843 1.029c0.114 0.299-0.243 0.6 0.1 0.828c-0.2 0.328-0.644 0.586-0.771 1 c-1.386 0.571-2.528 1.472-3.7 2.386c-1.1 1.014-2.157 1.986-2.914 3.242v0.043c-0.157 0.086-0.071 0.286-0.243 0.3 c-0.028 0.101-0.128 0.157-0.186 0.243c-0.243 0.57-0.586 1.085-0.771 1.686c-0.143 0.186-0.157 0.414-0.242 0.6 c-0.029 0.1-0.072 0.214-0.101 0.328l-0.086 0.472c-0.043 0.1 0 0.257-0.1 0.328c-0.057 0.129-0.143 0.314-0.043 0.4 c-0.071 0.4 0.1 0.6 0.2 0.857c-0.015 0.229-0.242 0.385-0.328 0.585c-0.157 0.186-0.286 0.429-0.443 0.6 c-0.1 0.3 0.2 0.6 0.4 0.785c0.486 0.2 0.985-0.057 1.443-0.171c0.643-0.143 1.171-0.5 1.771-0.743l0.015 0 c0.186 0.7 0.4 1.5 1 1.985c0.343 0.2 0.8 0.3 1.2 0.243c0.399 0.1 0.686-0.157 1-0.271 c0.043 0 0.1 0 0.1 0.086c-0.086 0.8 0.2 1.5 0.7 2.143c0.5 0.3 0.9 0.6 1.4 0.9 c-0.043 0.4 0.1 0.8 0.1 1.143c0.129 0.2 0.1 0.5 0.3 0.687c0.472 1 1.4 1.6 2.3 2.1 c0.7 0.2 1.3 0.3 2 0.115c0.042-0.043 0.143-0.086 0.199-0.058c0.144 0.5 0.3 1 0.6 1.5 c0.143 0.2 0.3 0.3 0.4 0.485c0.114 0.3 0.4 0.5 0.6 0.8c0.286 0.4 0.8 0.5 1 1 c0.214 0.6 0.7 1.2 1.4 1.385c0.071 0.1 0.3 0.1 0.3 0.243c-0.215 0.229-0.215 0.571-0.372 0.8 c0.015 0.543-0.043 1.2 0.2 1.743c-0.015 0.2 0.1 0.3 0.2 0.457c0.014 0 0 0.1 0.1 0.1 c0.086 0.4 0.5 0.6 0.7 0.885c0.114 0.4 0.4 0.8 0.8 1.086c0.229 0.1 0.5 0.2 0.8 0.3 c0 0.1 0 0.3 0 0.357c0.071 0.4 0.2 0.7 0.3 1.1c0.043 0.3 0.2 0.5 0.4 0.7 c0.086 0.3 0.3 0.5 0.4 0.7c-0.157 0.242-0.271 0.528-0.386 0.785c-0.229 0.715-0.243 1.343-0.057 2.1 c0.043 0.1 0 0.2 0.1 0.3c0.286 0.8 1.1 1.5 1.8 1.828c0.2 0.3 0.3 0.6 0.3 0.9 c0.129 0.586-0.071 1.158-0.157 1.729l-0.014-0.014c-0.028 0.301-0.071 0.672-0.157 0.957c-0.015 0.1 0 0.114-0.028 0.2 c-0.015 0.442-0.114 0.8-0.172 1.214c-0.015 0.1 0 0.215-0.043 0.301c0 0.6-0.143 1.3 0.1 1.9 c-0.028 0.6 0.2 1.2 0.4 1.728c0.429 0.7 0.8 1.4 1.4 1.985v0.058c0.129 0 0.2 0.1 0.2 0.2 c0.028 0 0.1 0 0.1 0.114c0.671 0.5 1.3 1 2.2 1.229c0.429 0.2 0.9 0.2 1.3 0.3 c0.786 0 1.7 0.1 2.485-0.114c2.243-0.472 3.857-2.058 5.886-3c0.672-0.214 1.3-0.558 2.058-0.515 c0.171 0.1 0.2 0.4 0.4 0.529c0.214 0.5 0.7 0.8 1.2 0.985c0.357 0.2 0.8 0.2 1.3 0.2 c0.543 0 1.129-0.086 1.6-0.371c0.286-0.058 0.329-0.329 0.586-0.473c0.486 0.4 1.1 0.4 1.8 0.4 c0.271 0.1 0.6 0.1 0.9 0.1c0.629-0.199 1.1-0.671 1.43-1.242c0.113-0.215 0.2 0 0.3 0.1 c0.086 0.1 0.2 0.1 0.3 0.2c0.57 0.5 1.1 1 1.7 1.457c0.244 0.1 0.6 0.3 0.8 0.5 c0.344 0.1 0.6 0.3 0.9 0.387c0.428 0.1 0.8 0.4 1.3 0.371c0.043 0 0.1 0.1 0.1 0 c0.271 0.1 0.6 0.1 0.8 0.186c0.4-0.014 0.8 0.1 1.2 0.086c0.201-0.014 0.371-0.043 0.6 0 c0.457-0.028 0.885-0.157 1.355-0.187c0.357-0.027 0.701-0.256 1.059-0.356c0.799-0.356 1.6-0.886 2.143-1.6 c0.385-0.129 0.357-0.586 0.613-0.8c0.129-0.443 0.328-0.9 0.6-1.286c-0.041-0.043 0.016-0.085 0.043-0.101 c-0.014-0.256 0.129-0.442 0.201-0.656c0.027-0.371 0.213-0.686 0.242-1.057c0.229-0.915 0.301-2.058 0.287-2.9 c0.127-0.443 0.027-0.729 0.084-1.186c-0.043-0.229-0.043-0.429-0.07-0.672c-0.043-0.271 0.014-0.528 0.086-0.8 c0.1-0.257 0.229-0.485 0.328-0.743c0-0.156 0.156-0.242 0.156-0.414c0.344-0.457 0.543-1 0.887-1.428 c0.027-0.187 0.143-0.329 0.172-0.5c0.143-0.286 0.271-0.572 0.312-0.9c0.043-0.1-0.014-0.258 0.059-0.357 c-0.029-0.443 0.027-0.971-0.059-1.4c-0.014-0.457-0.242-0.813-0.271-1.256c0.314-0.344 0.4-0.786 0.559-1.201 c0.014-0.371 0.143-0.714 0.086-1.07c0.127-0.229 0.312-0.286 0.385-0.543c0.143-0.601 0.285-1.328 0.129-1.972 c0.014-0.243-0.158-0.429-0.129-0.657c0.229 0 0.4 0.1 0.7 0.114c0.6-0.015 1.2 0.2 1.801-0.058 c0.271-0.213 0.6 0.1 0.9 0.058c0.328-0.086 0.6 0.2 0.9 0.071c0.186-0.057 0.172-0.257 0.215-0.428 c-0.457-0.243-0.5-0.715-0.787-1.086c-0.299-0.6 0.186-1.215 0.244-1.828c0-0.086 0.1-0.115 0.086-0.215 c0.256-0.443 0.385-0.957 0.584-1.414c0.016-0.1 0.129-0.2 0.115-0.301c0.199-0.299 0.328-0.643 0.443-0.985 c0.143-0.329 0.199-0.743 0.299-1.085c0.172-0.558 0.145-1.058 0.102-1.658c-0.016-0.514-0.172-0.984-0.357-1.414 c-0.072-0.07-0.1-0.186-0.115-0.271c0.057 0.1 0.215-0.07 0.3 0c0.844-0.014 1.43-0.656 1.9-1.313 c-0.027-0.058 0.043-0.086 0.072-0.129c0.043-0.214 0.199-0.386 0.242-0.614c-0.113-0.4 0.357-0.528 0.543-0.771 c0.301-0.672 0.557-1.399 0.457-2.228c0.057-0.171 0.242-0.186 0.371-0.328c0.059-0.029 0.158-0.072 0.229-0.014 c0.072-0.043 0.2 0.1 0.3 0.085c0.441 0.4 0.8 1.1 1.6 0.872c0.457 0 0.898-0.314 1.186-0.658 c0.014-0.186 0.242-0.229 0.242-0.414c0.029-0.129 0.043-0.285 0.156-0.357c0.129 0.1 0.3 0.3 0.4 0.4 c0.5 0.4 1 1 1.6 1.228c0.242 0.2 0.6 0.1 0.9 0.229c0.301-0.101 0.6-0.101 0.887-0.201 c0.17 0.2 0.5 0.4 0.8 0.458c0.172 0.1 0.4 0.1 0.5 0.171c0.314 0 0.572-0.114 0.9-0.143 c0.129-0.157 0.385-0.157 0.543-0.271c0.07-0.086 0.129-0.242 0.229-0.271c0.113 0.1 0.3 0.3 0.5 0.3 c0.129 0.1 0.229-0.07 0.328-0.1c-0.086-0.713-0.414-1.341-0.398-2.099c0-0.586-0.201-1.186-0.287-1.771 c-0.156-0.215-0.1-0.514-0.229-0.729c-0.043-0.557-0.428-0.972-0.543-1.5c-0.328-0.828-0.729-1.543-1.229-2.3l0.043-0.058 c-0.043-0.6-0.113-1.128-0.271-1.671c-0.1-0.101-0.113-0.186-0.199-0.286c-0.014-0.1-0.1-0.186-0.115-0.3 c-0.07-0.057-0.084-0.171-0.143-0.243c-0.242-0.5-0.57-1.07-0.971-1.442c-0.4-0.671-1.029-1.257-1.557-1.843 c-0.129-0.1-0.344-0.214-0.4-0.371l-0.016 0.028c-0.6-0.614-1.342-1.143-2.057-1.657v-0.028c-0.17-0.071-0.342-0.186-0.484-0.286 c-0.4-0.271-0.857-0.528-1.287-0.757c-0.928-0.386-1.771-0.813-2.742-1.157v-0.014c-0.557-0.2-1.1-0.429-1.686-0.529 c-0.527-0.043-0.943-0.357-1.4-0.514c-0.414-0.129-0.699-0.472-1.043-0.672c-0.342-0.314-0.756-0.514-1.07-0.8 c-0.301-0.2-0.615-0.356-0.828-0.614c-1-0.771-1.771-2.043-2.943-2.656c-0.729-0.215-1.5-0.586-2.229-0.486 c-1.029-0.486-2.014-0.971-2.914-1.643c-0.301-0.285-0.615-0.515-0.943-0.758c-1.271-1.285-2.9-2.199-4.771-2.214 c-0.299 0.043-0.6 0.157-0.885 0.1c-0.801-1.385-2.457-1.528-3.828-2.014c-0.701-0.271-1.072-0.943-1.357-1.585 c-0.029-0.186-0.143-0.329-0.156-0.543C148.648 8.2 148.5 8.1 148.4 8.051z M148.763 10.4 c1.17 1.4 3.5 0.7 4.4 2.414c0 0.043-0.014 0.1-0.057 0.1l0.014 0.029c-0.471 0.357-0.785 0.8-1.113 1.3 c-0.086 0.215-0.186 0.472-0.215 0.7c-0.043 0.028-0.086 0.101-0.086 0.157c-0.057 0.071-0.014 0.215-0.072 0.3 c-0.027-0.015-0.043 0.014-0.057 0.028c-0.027 0.1 0 0.214-0.086 0.257c-0.057 0.2-0.07 0.371-0.186 0.6 c0.029 0.071-0.1 0.085-0.057 0.143c-0.172 0.071-0.242-0.157-0.371-0.214c-0.828-0.758-1.93-1.386-3.115-1.586 c-0.484-0.014-0.998 0.057-1.414-0.043c-0.014-0.043-0.057-0.028-0.113-0.043c-0.072 0.015-0.143-0.113-0.242-0.1 c-0.287-0.129-0.516-0.343-0.602-0.671c-0.1-0.743 0.344-1.372 0.917-1.671c0.686-0.343 1.312-0.771 1.713-1.471 c0.129-0.157 0.172-0.415 0.285-0.572C148.519 10.1 148.6 10.3 148.8 10.422z M144.92 11.965l0.028 0.071l-0.015-0.015 c-0.014 0.086-0.114 0.143-0.1 0.257c0 0.071-0.129 0.1-0.114 0.2c-0.2 0.286-0.257 0.686-0.243 1.1 c-0.028 0.4 0.2 0.7 0.4 1c0.457 0.4 0.9 0.9 1.6 0.972c0.043-0.015 0.115-0.071 0.172-0.028 c0.143 0.2 0.1 0.5 0.2 0.656c0.07 0.3 0.1 0.6 0.2 0.929c-0.014 0.7 0.1 1.543-0.186 2.2 c-0.07 0.243-0.086 0.515-0.172 0.729v0.043c-0.057 0.101-0.084 0.229-0.127 0.329v0.1c-0.059 0.071-0.059 0.2-0.115 0.3 c-0.027 0.101-0.086 0.215-0.113 0.314c-0.143 0.157-0.201 0.344-0.244 0.543c-0.057 0.086-0.129 0.172-0.156 0.3 c-0.057 0.043-0.115 0.072-0.086 0.157l-0.014-0.028c-0.331 0.414-1.072 0.328-1.5 0.314c-0.258-0.143-0.515-0.301-0.7-0.529 l-0.015 0.015c-0.071-0.214-0.229-0.343-0.328-0.543l-0.015 0.015c-0.071-0.186-0.2-0.258-0.257-0.429 c-0.028 0-0.043-0.101-0.086-0.144c-0.271-0.57-0.843-0.813-1.442-0.984v-0.029c-0.343-0.143-1.015 0.114-1.215-0.3 c-0.114-0.157-0.343-0.214-0.428-0.386l-0.015 0.028c-0.086-0.171-0.157-0.328-0.243-0.499c-0.143-0.458-0.442-0.93-0.686-1.301 c-0.6-0.672-1.671-1.071-2.643-1.143c-0.243-0.1-0.558-0.186-0.643-0.443c1.157-0.729 2.386-1.6 3.528-2.385 c0.071 0 0.086-0.1 0.171-0.1c0.515-0.3 1-0.457 1.528-0.8c0.672-0.314 1.472-0.586 2.2-0.571 C143.605 11.7 144.3 11.9 144.9 11.965z M158.791 14.951c0.471 0.3 0.9 0.8 1.4 1.1 c0.514 0.5 1.3 0.8 1.9 1.199l-0.113 0.086l0.027 0.015c-0.643 0.271-1.215 0.586-1.928 0.8 c-0.943 0.243-1.943 0.543-2.9 0.229c-0.242-0.071-0.457 0.015-0.699-0.086c-0.43 0.086-0.9 0.101-1.271 0.3 c-0.914 0.3-1.715 0.857-2.357 1.528l0.014 0.015c-0.328 0.229-0.6 0.514-0.885 0.757c-0.115 0.028-0.158 0.186-0.314 0.2 c-0.072-0.086 0.043-0.285 0.029-0.457c0.057-0.943 0.328-1.785 0.299-2.771c0.043-0.157 0.043-0.371 0.072-0.571 c0.1-0.5 0.17-1.028 0.385-1.5c0.186-0.586 0.344-1.243 0.785-1.714c0.373-0.357 0.814-0.628 1.287-0.757 c1.256-0.414 2.3 0.3 3.4 0.915L158.791 14.951z M129.478 15.565c0.543 0.4 1.1 0.9 1.8 1.1 c0.343 0.2 0.7 0.3 1.1 0.515l0.015-0.015c0.242 0.2 0.5 0.3 0.8 0.4c0.357 0.1 0.7 0.4 1.1 0.4 c0.114 0.5 0.2 1.1 0.5 1.499v0.058c0.257 0.3 0.5 0.7 0.9 0.872c0.186 0.1 0.4 0.3 0.6 0.4 c0.101-0.015 0.1 0.1 0.3 0.043c0.143 0.1 0.3 0.1 0.4 0.128c0.086 0.2 0.2 0.3 0.3 0.5 c0.187 0.3 0.5 0.4 0.8 0.643c0.785 0.4 2 0.6 2.742-0.042c0.372-0.2 0.686-0.442 0.943-0.757l0.143-0.072 c0.243 0.3 0.8 0.3 0.8 0.844c0.271 0.5 0.7 0.9 1.2 1.214c0.485 0 1 0.1 1.5 0.1 c0.043 0.028-0.016 0.1 0 0.186c-0.086 0.043-0.043 0.129-0.057 0.229h-0.014l-0.029 0.3 c-0.057 0.07-0.057 0.171-0.072 0.257c-0.128 1.356-0.042 2.5 0.3 3.728c0.114 0.5 0.4 0.9 0.5 1.4 c0.229 0.4 0.4 0.9 0.8 1.186c0.557 0.7 1.4 0.9 2.3 1.199v0.043h-0.014c-0.102 0.1 0.1 0.4-0.072 0.5 c-0.6-0.086-1.156-0.257-1.686-0.514c-0.215-0.215-0.486-0.301-0.699-0.486c-0.344-0.257-0.758-0.543-1-0.885 c-0.258-0.158-0.258-0.473-0.543-0.543c-0.257-0.271-0.514-0.558-0.442-0.986l-0.043-0.028c0.057-0.457-0.086-0.843-0.2-1.214 c-0.172-0.629-0.629-1.015-1.143-1.4c-0.972-0.486-2.3-0.386-3.214 0c-0.129 0.1-0.187 0.1-0.343 0.2 c-0.372 0.229-0.829 0.542-1.058 0.929c-0.143 0.214-0.343 0.199-0.558 0.113c-0.5-0.256-0.985-0.299-1.485-0.471 c-0.157-0.328-0.557-0.514-0.785-0.757c-0.657-0.443-1.4-0.729-2.101-1.114c0.015-0.529-0.186-0.929-0.356-1.386 c-0.086-0.243-0.157-0.5-0.271-0.729c-0.457-1.058-1.314-1.786-2.086-2.485c-0.357-0.143-0.643-0.357-1-0.515 c-0.985-0.243-2.086-0.314-2.929 0.257c-0.071 0.186-0.343 0.2-0.386 0.4c-0.128 0.172-0.271 0.386-0.313 0.5 c-0.172 0.028-0.215-0.128-0.343-0.186c-0.429-0.257-0.814-0.485-1.329-0.586c-0.043 0-0.129-0.058-0.1-0.157 c0.699-0.671 1.5-1.328 2.514-1.5c0.157-0.113 0.314-0.271 0.3-0.485c-0.085-0.171-0.042-0.371-0.171-0.528 c0.028-0.357-0.071-0.857 0.086-1.2v-0.086h0.014c0.172-0.571 0.486-1.128 0.972-1.457c0.114-0.214 0.386-0.271 0.557-0.414 C129.12 15 129.2 15.3 129.5 15.565z M150.033 16.565c0.373 0.3 0.6 0.7 0.9 1 c0.072 0.2 0.2 0.4 0.2 0.657c0.027 0 0 0.1 0 0.143h-0.014c-0.086 0.657-0.172 1.329-0.201 1.986h-0.027 c0 0.229-0.115 0.442-0.102 0.656c-0.027 0.101-0.07 0.215-0.1 0.329c0 0.243-0.186 0.485-0.256 0.7 c-0.158 0.172-0.244 0.399-0.357 0.6c-0.029 0.343-0.33 0.571-0.572 0.771c-0.328 0.314-0.613 0.715-1.1 0.8 c-0.643 0.058-1.314-0.058-1.828-0.386c-0.143-0.014-0.244-0.143-0.271-0.271c0.014-0.186-0.199-0.257-0.129-0.442 c0.029-0.086 0.115-0.129 0.129-0.229c0.258-0.271 0.314-0.671 0.6-0.971c0.271-0.614 0.557-1.229 0.701-1.886 c0.127-0.457 0.213-0.914 0.328-1.371c0.057-0.857-0.016-1.757-0.145-2.586c-0.057-0.214-0.17-0.429-0.184-0.643 c0.342-0.157 0.7 0.1 1.1 0.171C149.205 15.9 149.5 16.2 150 16.565z M134.291 16.822l-0.014-0.028l-0.043 0 c0.057 0.086-0.043 0.114-0.086 0.172c-0.086-0.043-0.229-0.115-0.357-0.172c-0.128-0.043-0.242-0.129-0.328-0.172 c0.243-0.113 0.543-0.186 0.814-0.3L134.291 16.822z M135.863 17.136c0.328 0 0.8 0 1.1 0.2 c0.057-0.057 0 0 0.1 0.029c0.886 0.1 1.4 1 1.7 1.771c0.1 0.6 0.7 0.9 1 1.3 c0.357 0.3 0.8 0.2 1.3 0.243c0.114 0.1-0.086 0.128-0.086 0.214c-0.486 0.343-1 0.828-1.672 0.6 c-0.514-0.186-1.229-0.428-1.485-0.942c-0.114-0.414-0.6-0.601-1.014-0.657c-0.4-0.214-0.814-0.4-1.114-0.714 c-0.229-0.314-0.472-0.601-0.515-1.015c-0.114-0.414-0.157-0.8-0.086-1.271c0.028-0.172 0.215-0.129 0.286-0.028 C135.605 17 135.7 17.1 135.9 17.136z M165.132 18.05c0.828 0.1 1.3 0.7 1.8 1.286v0.057 c-0.615 0.172-1.301-0.114-1.986 0.043c-0.928 0-1.814 0.371-2.729 0.429l-0.014 0.015c-0.514 0-0.986 0.357-1.529 0.3 c-0.156 0-0.299 0.029-0.371 0.2c-0.113 0.3 0.2 0.3 0.2 0.601c0 0.1 0.1 0.2 0.1 0.3 c-0.244 0.301-0.672 0.472-1 0.686c-0.33 0.215-0.771 0.244-1.143 0.414c-0.086-0.07-0.102 0.043-0.186 0 c-0.172-0.014-0.344 0.043-0.516 0.014v-0.014c-0.871 0.1-1.686-0.414-2.586-0.386c-1.5 0.114-2.971 0.644-4.285 1.3 c-0.129 0.029-0.229 0.043-0.342 0.086c-0.016-0.114 0.113-0.172 0.186-0.257c0.613-0.629 1.213-1.286 1.842-1.872 c0.086-0.128 0.271-0.186 0.328-0.314c0.102-0.057 0.215-0.171 0.344-0.256c0.029-0.086 0.156-0.144 0.229-0.215 c0.529-0.515 1.115-0.929 1.801-1.215c0.299-0.07 0.6-0.214 0.928-0.199c0.371-0.186 0.7 0.1 1.1 0 c1.342 0.3 2.713-0.072 3.971-0.6c0.557-0.258 1.199-0.572 1.857-0.586c0.199-0.115 0.443-0.129 0.672-0.187 C164.291 17.7 164.7 17.9 165.1 18.05z M166.718 20.221c0 0 0 0 0 0.1 c0.229-0.085 0.4 0.1 0.7 0.144c0.957 0.4 1.7 1 2.5 1.557c0.043 0.1 0.3 0.2 0.3 0.3 c-1.271 0.171-2.658 0.085-3.914 0.128c-1.059-0.07-2.229 0.172-3.314-0.128c-0.244-0.144-0.557-0.186-0.758-0.386 c-0.314-0.114-0.613-0.343-0.756-0.643c-0.086-0.129-0.201-0.243-0.158-0.414c1.014-0.271 2.029-0.515 3.057-0.615 C165.119 20.1 165.9 20.1 166.7 20.221z M130.191 21.293c0.558 0.4 1.1 0.9 1.5 1.4 c0.371 0.3 0.4 0.8 0.7 1.172c0.156 0.3 0.2 0.6 0.3 0.799c0.071 0.1 0.1 0.3 0.2 0.4 c-1 0-1.871 0.328-2.814 0.442c-0.686-0.057-1.386-0.129-1.942 0.2c-0.372 0.101-0.729 0.329-1.043 0.5 c-0.071 0.129-0.229 0.157-0.314 0.243c-0.328 0.385-0.771 0.6-1.043 0.985c-0.257 0.114-0.313 0.386-0.528 0.6 c-0.1 0.214-0.371 0.357-0.414 0.586c-0.172 0.1-0.043 0.299-0.028 0.399c0.085 0.1 0.2 0.3 0.4 0.2 c0.586-0.186 1.172-0.457 1.829-0.286c1.1 0.2 2 0.9 3.1 1.171c0 0.4 0.1 0.6 0.4 0.8 c0.715 0.1 1.3 0.4 1.9 0.657c0.172 0.2 0.3 0.2 0.5 0.271c0.314 0 0.6 0.3 0.9 0.4 c0.571 0.2 1.1 0.5 1.7 0.601c0.171 0 0.3 0.2 0.4 0.143c0.301 0.1 0.6 0.1 0.9 0.1 c0.771 0.1 1.628-0.172 2.214-0.729c0.215-0.215 0.528-0.314 0.7-0.615c0.429-0.271 0.6-0.714 0.957-1.086 c0.386-0.314 0.7-0.742 1.129-0.984c0.428-0.314 1.057-0.558 1.6-0.329c0.157 0.1 0.4 0.2 0.4 0.3 c-0.028 0.057-0.157 0.186-0.101 0.356c0-0.015-0.014-0.028-0.028-0.028c-0.043 0.199-0.157 0.4-0.214 0.6 c0.028 0.328-0.258 0.442-0.229 0.771c-0.058 0.086-0.114 0.2-0.129 0.286c-0.129 0.156-0.1 0.314-0.229 0.5 c-0.129 0.344-0.457 0.572-0.6 0.943c-0.258 0.242-0.443 0.514-0.771 0.672c-0.086 0.086-0.215 0.156-0.286 0.3 c-0.442 0.243-0.857 0.414-1.343 0.571c-0.643 0.242-1.442 0.471-2.114 0.328c-0.942-0.057-1.828-0.514-2.657-0.928 c-0.671-0.387-1.399-0.715-2.071-1.143c-0.343-0.129-0.699-0.258-1.071-0.329c-1.5-0.472-3.1-0.187-4.457 0.4 c-1.471 0.715-2.742 2.015-4.143 2.801c-0.914 0.699-2.285 0.971-3.471 0.656c-0.286-0.014-0.5-0.186-0.771-0.199 c-0.357-0.143-0.672-0.286-0.943-0.558c0.144-0.386 0.243-0.8 0.443-1.171c0.157-0.615 0.543-1.143 0.856-1.672 c0.372-0.571 0.801-1.229 1.357-1.614c0.457-0.313 0.9-0.728 1.442-0.929c0.415-0.242 0.814-0.457 1.314-0.514 c0.229-0.057 0.486-0.157 0.743-0.114c0.171-0.086 0.071-0.329 0.114-0.472c0-0.143-0.172-0.186-0.286-0.242 c-0.514 0.043-1.014 0.057-1.442 0.242c-0.429 0.1-0.657 0.4-1.086 0.5c-0.485 0.514-1.2 0.314-1.671 0.8 c-0.386 0.158-0.743 0.43-1.172 0.515c-0.871-0.171-1.671-0.5-2.571-0.585c-0.686-0.286-1.442 0.014-2.143 0 c-0.7 0.285-1.5 0.186-2.114 0.614c-0.985 0.543-1.942 0.915-2.856 1.601c-0.458 0.299-0.872 0.514-1.286 0.9 c-0.071 0.015-0.114 0.086-0.2 0.128c-1.114 0.857-2.229 1.857-3.057 2.986c-0.4 0.443-0.857 0.971-1.129 1.443l-0.086 0.1 c0-0.442 0.101-0.842 0.243-1.242c0.086-0.472 0.343-0.9 0.515-1.343c0.086-0.071 0.086-0.2 0.186-0.286 c0.114-0.428 0.5-0.699 0.643-1.129c0.157-0.143 0.257-0.399 0.429-0.542c-0.015-0.101 0.114-0.086 0.129-0.172 c0.514-0.8 1.143-1.243 1.757-1.942c0.571-0.443 1.143-0.914 1.742-1.301c0.386-0.285 0.743-0.628 1.2-0.799 c0.329-0.271 0.758-0.387 1.143-0.558c0.601-0.229 1.344-0.286 1.986-0.257c1.1-0.115 2.3 0.1 3.4 0.1 c0.171 0.1 0.4 0 0.6 0.057c1.229 0.2 2.4 0.3 3.7 0.144c1.043-0.058 2.014-0.399 2.971-0.714 c0.558-0.271 1.144-0.457 1.515-0.914c0.614-0.5 1.058-1.215 1.429-1.914c-0.015-0.301 0.285-0.473 0.2-0.801 c-0.058-0.357 0.257-0.715 0.071-1.1c0.014-0.271-0.101-0.543-0.172-0.758c-0.1-0.1-0.157-0.229-0.229-0.357 c-0.043-0.085-0.128-0.199-0.1-0.299c0.614-0.058 0.643-0.943 1.285-0.986c0.672-0.1 1.4 0 2 0.328L130.191 21.293z M124.764 21.579c0.8 0.2 1.2 1 1.5 1.643c-0.042 0.1 0.1 0.1 0.1 0.229c-0.072 0.043-0.129 0.058-0.215 0.1 v-0.028c-0.857-0.157-1.742-0.557-2.571-0.643c-1.586-0.172-3.157-0.029-4.671 0.214c-0.343 0.144-0.729 0.186-1.071 0.3 c-0.343 0.028-0.686 0.229-1.043 0.313c-0.8 0.43-1.558 0.729-2.386 1.144c-0.129 0.114-0.328 0.2-0.472 0.257l-0.028-0.014 l0.028 0.014c0.229-0.543 0.857-0.629 1.215-1.129c1.214-0.714 2.428-1.356 3.728-1.856c1.4-0.644 2.986-0.899 4.657-0.771 C123.949 21.4 124.3 21.5 124.8 21.579z M162.291 22.879c0.928 0.5 2.2 0.3 3.2 0.3 c0.057 0.1 0.113-0.014 0.2 0c0.914-0.1 1.756-0.057 2.656-0.1l0.043 0.028c0.443 0 0.9 0 1.314-0.028 c0 0 0 0 0 0.057c0.215-0.143 0.529-0.086 0.801-0.129c0.199 0 0.5-0.014 0.7 0.1 c0.514 0.1 1.213-0.086 1.7 0.186c0.613 0.1 1.3 0.3 1.8 0.515c0.314 0.2 0.7 0.2 1 0.4 c0.328 0.1 0.5 0.2 0.8 0.371c0.57 0.2 1.2 0.4 1.6 0.9c0.686 0.4 1.3 0.9 1.9 1.371v0.028 c0.244 0.2 0.5 0.3 0.7 0.628c0.398 0.2 0.7 0.6 1 0.9v0.043c0.588 0.5 0.8 1.2 1.4 1.7 c0.084 0.3 0.4 0.5 0.5 0.914c0.172 0.1 0.1 0.3 0.2 0.386c0.172 0.3 0.3 0.6 0.3 1 c-0.6-0.5-1.1-1.058-1.699-1.586c-0.459-0.5-0.943-0.957-1.473-1.386c-0.4-0.372-0.885-0.657-1.242-1.043 c-0.672-0.543-1.457-0.857-2.172-1.314c-0.043-0.028-0.086-0.101-0.143-0.071v-0.043c-1.258-0.757-2.785-1.129-4.242-1.543 c-0.801-0.214-1.758-0.186-2.514-0.357c-1.344-0.186-2.645-0.313-3.973-0.428c-1.156-0.129-2.314-0.301-3.4-0.715 c-0.441-0.342-1.014-0.471-1.414-0.828c-0.328-0.2-0.643-0.5-0.871-0.843v-0.144l0.016 0.016v-0.059 C161.562 22.4 161.9 22.7 162.3 22.879z M161.304 23.379c0.586 0.3 1.1 0.8 1.8 1 c0.414 0.3 1 0.4 1.5 0.585c0.627 0.2 1.4 0.2 2 0.329c0.072 0.1 0.2 0 0.4 0 c0.957 0.2 1.9 0.3 2.9 0.371c0.93 0 1.7 0.3 2.7 0.229c1.059 0.2 2 0.5 3.1 0.8 c0.586 0.3 1.3 0.5 1.8 0.914c0.457 0.4 1.1 0.5 1.5 0.985c0.33 0.2 0.6 0.5 0.9 0.7 c0.244 0.3 0.6 0.4 0.8 0.729c0.871 0.6 1.5 1.5 2.4 2.086c0.199 0.4 0.7 0.6 0.8 0.9 c0.242 0.8 1.1 1.1 1.3 1.914c0.258 0.6 0.6 1.1 0.8 1.686c0.156 0.3 0.2 0.7 0.3 1 c0.057 0.2 0.1 0.3 0.1 0.5c-0.07 0.2 0.1 0.4 0.1 0.6c-0.016 0.3 0.1 0.5 0.1 0.785h-0.014 c-0.043 0.1 0 0.258-0.059 0.357c-0.242-0.057-0.299-0.257-0.484-0.414c-0.414-0.343-0.887-0.471-1.158-0.971 c-0.143-0.158-0.414-0.101-0.527-0.314c-0.158-0.043-0.314-0.229-0.457-0.301c-0.172-0.271-0.459-0.356-0.586-0.656 c-0.287-0.172-0.516-0.414-0.729-0.643c-0.271-0.372-0.615-0.744-0.787-1.172c-0.156-0.172-0.299-0.429-0.5-0.571 c-0.1-0.286-0.484-0.485-0.484-0.857c-0.115-0.015-0.115-0.101-0.115-0.2c-0.271-0.214-0.314-0.557-0.527-0.771 c-0.059-0.328-0.486-0.371-0.443-0.757c-0.344-0.271-0.301-0.914-0.801-1.028c-0.328-0.443-0.729-1-1.186-1.4 c-0.086-0.156-0.229-0.357-0.357-0.485c-0.371-0.357-0.713-0.771-1.143-1.071c-0.842-0.557-1.643-1.129-2.67-1.285 c-0.314-0.172-0.787-0.016-1.029-0.258c-0.271-0.199-0.557-0.258-0.844-0.386V26.45c-1.229-0.385-2.514-0.729-3.898-0.628 c-0.586-0.071-1.1-0.015-1.701-0.058c-0.514-0.071-1.07-0.186-1.613-0.186c-0.029-0.071-0.072 0.015-0.115-0.043 c-0.957-0.314-1.984-0.442-3.041-0.357c-1.23 0.072-2.271 0.586-3.443 0.857c-0.471 0.157-0.828 0.486-1.371 0.4 c-0.371 0.186-0.602-0.157-0.93-0.286c-2.371-0.856-4.971 0.429-7.285-0.515c-0.057 0-0.156-0.07-0.229-0.085 c-0.256-0.214-0.67-0.372-0.742-0.687c0.314 0.2 0.7 0.1 1 0.115c0.414-0.029 0.83-0.043 1.186-0.229 c0.072 0.1 0.145-0.029 0.186-0.058c0.645-0.128 1.129-0.558 1.744-0.743c0.385-0.214 0.742-0.457 1.156-0.557 c0.629-0.3 1.301-0.457 2.016-0.6c0.67-0.143 1.4 0.1 2.1 0.271c1.285 0.4 2.5 0.1 3.6-0.601 C160.605 22.8 161 23 161.3 23.379z M123.349 23.651c0.644 0 1.3 0.4 1.9 0.5 c0.343 0.1 0.7 0.1 1 0.342c0.071 0 0.1 0 0.2 0.029c0 0.1 0.1 0.1 0 0.2 c-0.3 0.516-0.628 1-1.028 1.443c-0.514 0.514-1.143 0.843-1.813 1.029c-0.515 0.229-1.058 0.356-1.601 0.5 c-2.229 0.485-4.485-0.085-6.828-0.1c-0.9-0.114-1.828-0.015-2.729-0.015l-0.057-0.043c0.085-0.028 0.042-0.1 0.143-0.129 c0.543-0.527 1.057-1.057 1.714-1.457c0.528-0.313 1.101-0.557 1.657-0.856c0.414-0.229 0.871-0.357 1.271-0.629 c0.229-0.028 0.4-0.1 0.6-0.2c0.5-0.014 0.914-0.285 1.4-0.342C120.506 23.6 122 23.5 123.3 23.651z M146.734 25.6 v0.029c0.258 0.3 0.5 0.4 0.8 0.613c0.285 0.1 0.6 0.3 0.9 0.371l0.014-0.027 c0.629 0.2 1.1 0.2 1.8 0.156c0.688 0 1.4 0 2.086-0.1c0.686-0.029 1.287-0.043 1.957-0.014 c0.414 0.2 0.9 0.1 1.2 0.414c0.471 0.2 0.9 0.5 1.3 0.899c0.199 0.3 0.4 0.5 0.6 0.8 c0.299 0.3 0.5 0.5 0.8 0.872c0.213 0.5 0.5 0.9 0.6 1.442c0.143 0.3 0.1 0.6 0.3 0.929l-0.016 0.1 c-0.957-0.385-1.857-0.957-2.9-1.085c-0.812-0.144-1.785-0.343-2.6-0.086c-1.398 0.171-2.799 0.515-4.213 0.2 c-1.244-0.171-2.143-0.972-2.643-2.057c-0.1-0.329-0.301-0.671-0.371-1.015c-0.215-0.371-0.229-0.814-0.33-1.229 c-0.086-0.229 0.029-0.586-0.1-0.814c0.029-0.442 0-0.814 0.086-1.271C146.162 24.9 146.3 25.4 146.7 25.579z M163.777 26.093c0 0.1 0.1 0 0.1 0.042c0.4 0.2 0.9 0.2 1.3 0.229c0.086 0.1 0.2 0 0.4 0.1 c1.1 0.2 2.2 0 3.4 0.129c0.756 0 1.5 0.2 2.2 0.485c0.357 0.1 0.8 0.2 1.1 0.5 c0.414 0.2 0.8 0.6 1.2 0.856c0.229 0.4 0.6 0.7 0.9 1.101c0.385 0.4 0.7 0.8 1.2 1.1 c-1.229 1.301-3.344 0.957-4.971 0.572c-0.029-0.043-0.072-0.029-0.115-0.029l-0.014 0.015c-0.801-0.329-1.828-0.114-2.658-0.058 c-0.742 0.372-1.541 0.172-2.312 0.101c-0.701-0.157-1.357-0.286-2.043-0.485c-0.629-0.101-0.986-0.5-1.5-0.758 c-0.371-0.328-0.844-0.543-1.1-0.942c-0.086-0.071-0.172-0.144-0.201-0.229c-0.527-0.485-0.914-0.914-1.428-1.386 c-0.129-0.2-0.328-0.343-0.516-0.5c-0.186-0.072-0.299-0.1-0.441-0.242c0.385-0.101 0.771-0.301 1.143-0.314 c0.729-0.329 1.457-0.415 2.242-0.543C162.248 25.8 163.1 25.9 163.8 26.093z M133.863 26.4 c0.471 0.2 0.9 0.4 1.3 0.729c-0.443 0.128-0.957 0.186-1.314 0.457c-0.786 0.356-1.357 0.928-1.985 1.6 c-0.314 0.115-0.7 0.072-1.029 0.115c-0.585 0-1.071-0.372-1.628-0.5c-0.8-0.443-1.672-0.758-2.601-0.914 c0.157-0.271 0.5-0.4 0.687-0.686c0.6-0.344 1.285-0.857 2.057-0.758c1.357 0.2 2.472-0.6 3.942-0.285L133.863 26.378z M143.034 27.379c0.2 0.2 0.4 0.4 0.4 0.628c0.043 0 0 0 0 0.071c-0.014 0.014-0.043 0.057-0.071 0.1 l-0.015-0.027l-0.028 0.057c-0.371-0.114-0.714 0.057-1.014 0.114c-1.271 0.356-2.2 1.571-2.986 2.5 c-0.328 0.301-0.6 0.515-0.928 0.801c-1.372 0.985-3.101 0.114-4.472-0.371c-0.614-0.258-1.157-0.572-1.785-0.829l-0.215-0.171 c0.957-0.743 1.786-1.943 3.1-2.158c0.886-0.186 1.8 0 2.6 0.314c0.314 0.1 0.6 0.9 1.1 0.4 c0.028-0.086 0.144-0.101 0.172-0.2c0.071-0.129 0.2-0.271 0.271-0.386c0.757-0.886 1.928-1.343 3.085-1.186 C142.491 27.1 142.8 27.1 143 27.379z M158.062 27.635c0.057 0 0 0.1 0.1 0.1 c0.785 0.9 1.6 1.6 2.5 2.386c0.387 0.4 0.9 0.6 1.3 0.872v0.028c1.242 0.6 2.7 0.9 4.2 1 c0.486 0 1.1 0 1.5-0.213l0.027 0.014l0.043-0.057c1.143-0.344 2.287-0.101 3.4 0.199c0.1 0.1 0.2 0.1 0.4 0.2 c0.357 0.3 0.8 0.6 1.2 0.843c0.143 0.2 0.2 0.4 0.4 0.6l0.07 0.115c-1.057 1.014-1.156 2.628-0.971 4.1 c0.043 0.4 0.2 0.8 0.4 1.113c0.029 0 0.1 0.1 0.2 0.115c-0.658 0.5-1.473 0.128-2.1-0.115 c-0.072-0.085-0.229-0.156-0.258-0.285c-0.473-0.457-0.742-1.242-1.414-1.457c-0.486-0.343-0.973-0.301-1.543-0.229 c-0.357-0.457-0.914-0.729-1.357-1.129c-0.285-0.242-0.672-0.385-1.043-0.343c-0.314 0.157-0.486 0.429-0.771 0.6 c-0.799 0.229-1.543 0.157-2.371 0.071c-0.342-0.086-0.686-0.229-0.971-0.4c-0.229-0.214-0.072-0.586-0.143-0.871 c-0.059-0.414-0.158-0.8-0.244-1.215c-0.156-0.457-0.514-0.799-0.613-1.285c-0.158-0.271-0.129-0.629-0.229-0.928 c-0.172-0.615-0.244-1.271-0.658-1.786c-0.242-0.7-0.785-1.271-1.314-1.814c-0.143-0.229-0.342-0.429-0.484-0.643 C157.462 27.4 157.8 27.5 158.1 27.635z M174.646 28.108c1.373 0.6 2.4 2 3.3 3 c0.143 0.2 0.3 0.5 0.5 0.701c0.229 0.4 0.6 0.8 0.8 1.228l0.014 0.015c0.172 0.3 0.5 0.7 0.6 1 c0.428 0.7 0.9 1.3 1.3 2.029c0.102 0 0.1 0.1 0.2 0.214c0.156 0.2 0.4 0.4 0.5 0.6 c0.271 0.2 0.5 0.5 0.7 0.743c0.371 0.5 0.8 0.8 1.2 1.172v0.028c0.742 0.5 1.4 1.2 2.1 1.7 c0.086 0.1 0.2 0.2 0.2 0.386c-0.043 0.043-0.057 0.114-0.043 0.157c-0.172 0.186-0.344 0.428-0.672 0.4 c-0.529-0.114-1.072-0.256-1.514-0.571c-0.242-0.057-0.443 0.157-0.701 0.143c-0.07 0.058-0.186 0.043-0.256 0 c-0.828-0.314-1.457-0.914-2.057-1.543c-0.715-0.786-1.271-1.9-1.887-2.814c-0.215-0.343-0.4-0.7-0.6-1.043 c-0.199-0.528-0.471-1-0.771-1.485c0.043-0.071-0.1-0.043-0.043-0.129c-0.443-0.585-0.971-1.028-1.486-1.528 c-0.414-0.271-0.799-0.514-1.256-0.672c-0.029-0.014 0-0.057-0.057-0.043c0.584-0.214 0.898-0.899 1.557-1.057 c0.1-0.1 0.271-0.229 0.186-0.4c-0.057-0.113-0.186-0.186-0.314-0.171c-0.572-0.229-0.986-0.614-1.371-1.028 c-0.314-0.543-0.729-0.828-1.072-1.328l-0.242-0.215C173.89 27.7 174.3 27.9 174.6 28.108z M144.862 30.9 c0.071 0.3 0.5 0.4 0.6 0.644c0.487 0.5 1.1 0.8 1.6 1.156c0.572 0.2 1.2 0.4 1.9 0.5 c0.113-0.058 0.285-0.043 0.4-0.028c0.027 0.4 0.5 0.5 0.7 0.742c0.172 0.1 0.4 0.1 0.6 0.2 c0.801 0.3 1.6 0.5 2.5 0.671c1.113 0.2 2.4 0.2 3.4 0.887c0.715 0.3 1.2 0.7 1.6 1.4 c0.484 0.4 0.7 1 1 1.643c0.143 0.3 0.1 0.6 0.2 0.872c0.043 0.3 0.1 0.6 0.1 1.014l0.027 0 c-0.1 0.1 0 0.1 0 0.156h0.016v0.186h-0.016c0-0.014 0-0.028-0.014-0.043c-0.043 0.072-0.07 0.101-0.07 0.2 c-0.158-0.028-0.258-0.186-0.373-0.314c-0.285-0.342-0.457-0.686-0.828-0.942c-0.514-0.614-1.314-1.114-1.943-1.558 c-2.342-1.342-5.143-1.813-7.898-2.171c-1.643-0.2-3.257-0.229-4.786-0.457c-0.386-0.101-0.9-0.157-1.071-0.543 c0.014-0.257 0.229-0.343 0.257-0.601c0.286-0.542 0.729-1.07 0.871-1.656c0.071-0.086 0.086-0.215 0.157-0.314 c0.015-0.071 0.101-0.114 0.086-0.2h0.015c0.071-0.214 0.199-0.399 0.229-0.628h0.014c0.058-0.271 0.2-0.457 0.215-0.771h0.028 c0.043-0.129 0.1-0.286 0.143-0.4C144.577 30.6 144.8 30.7 144.9 30.878z M117.221 31.4 c0.657 0.2 1.3 0.4 2 0.428c0.058 0 0 0.1 0 0.115c-0.186 0.214-0.328 0.414-0.414 0.7 c-0.429 0.729-0.8 1.471-1.057 2.257c-0.029 0.2-0.144 0.356-0.129 0.558c-0.172 0.113-0.143 0.328-0.143 0.5 c0.171 0.5 0.8 0.7 1.2 0.914c0.157 0 0.2 0.1 0.3 0.129c0.157 0.4 0.5 0.5 0.7 0.8 c-0.686 0.143-1.343-0.114-1.899-0.471c-0.386-0.387-0.429-1.086-1.028-1.271c-0.344 0.043-0.801-0.229-1.015 0.1 c-0.457 0.328-0.314 1.014-0.443 1.514l0.043 0.029c-0.043 0.156-0.014 0.4 0 0.514c0.129 0.4 0.4 0.8 0.6 1.2 l-0.014 0.015c0.714 0.6 0.9 1.4 1.4 2.142c0 0.2 0.2 0.3 0.2 0.557c0.415 1 0.3 2.344-0.143 3.4 c-0.058 0.229-0.243 0.414-0.243 0.672c-0.242 0.328-0.399 0.714-0.699 1.028c-0.271 0.399-0.543 0.786-1.029 0.9 c-0.657 0.186-1.542 0.086-2.057-0.372c-0.543-0.414-1.229-0.871-1.4-1.613c-0.042-0.286-0.186-0.529-0.128-0.857 c0.942 0.2 1.8-0.1 2.414-0.7c0.914-0.515 1.2-1.628 1.457-2.6c0.086-1.17-0.058-2.457-1.058-3.243 c-0.471-0.3-1.028-0.57-1.557-0.814c-0.414-0.229-0.786-0.527-1.129-0.885c-0.271-0.5-0.714-0.986-0.686-1.643 c-0.043-0.314 0.043-0.558 0.2-0.786c0.229-0.528 0.671-0.829 1.143-1.086c0.157-0.042 0.3-0.028 0.414-0.143 c0.271-0.2 0.758-0.043 0.943-0.399c0.015-0.229-0.015-0.43-0.157-0.572c-0.4-0.242-0.942-0.057-1.328 0.1 c-0.601 0.215-1.043 0.644-1.5 1.029c-0.271 0.071-0.429 0.285-0.644 0.4c-0.613 0.229-1.143 0.656-1.6 1.1 c-0.071 0.129-0.229 0.186-0.343 0.3c-0.086 0.3-0.4 0.356-0.5 0.657c-0.3 0.257-0.5 0.571-0.729 0.9 c-0.442 0.414-0.643 1.027-1.157 1.385c-0.143 0.258-0.399 0.414-0.628 0.601c-0.286 0.171-0.529 0.356-0.844 0.5 c-0.385 0.129-0.714 0.414-1.143 0.429c0.257-0.558 0.715-1.101 0.972-1.628c0.4-0.515 0.886-1 1.214-1.515 c1.429-1.614 3.143-2.814 4.957-3.942c1.129-0.473 2.143-1.286 3.472-1.357c0.543-0.172 1.2-0.229 1.828-0.2 C116.35 31.3 116.8 31.3 117.2 31.393z M156.404 31.793c0.615 0.2 1.1 0.6 1.7 0.7 c0.158 0.1 0.3 0.2 0.5 0.229c0.4 0.3 0.8 0.6 1.1 1.057c0.043 0.2 0.2 0.3 0.2 0.5 c0.242 0.9 0.2 1.8 0 2.699c-0.127 0.172-0.143 0.414-0.299 0.558c-0.301-0.628-1.016-1.058-1.328-1.714 c-0.801-0.743-1.83-1.158-2.887-1.443c-1.613-0.457-3.242-0.543-4.785-1.172c-0.258-0.085-0.428-0.328-0.613-0.484 c-0.102-0.244-0.129-0.5-0.23-0.744l-0.014-0.014l0.014 0.014c0.016 0 0.016-0.027 0.016-0.043 c1.057 0.1 2.186-0.113 3.186-0.242C154.076 31.5 155.2 31.5 156.4 31.793z M174.046 32.3 c0.314 0.1 0.6 0.3 1 0.385l0.129 0.129c-0.285-0.014-0.471 0.157-0.742 0.143c-0.156 0.143-0.4 0.129-0.572 0.3 c-0.057-0.057-0.086-0.157-0.1-0.257c-0.213-0.314-0.629-0.485-0.885-0.7l-0.043-0.043 C173.218 32.2 173.6 32.3 174 32.293z M131.892 33.393c0.371 0 0.6 0.2 1 0.3 c0.343 0.2 0.6 0.4 1 0.528c0.443 0.3 0.9 0.6 1.4 0.829l0.014 0.057c-0.357 0.171-0.857 0.086-1.3 0.1 c-1.757 0.2-3.785 0.043-5.242 1.114c-0.443 0.271-0.814 0.743-1.372 0.899c-0.5 0.329-1.128 0.443-1.643 0.8 c-1.157 0.3-2.543 0.601-3.729 0.144c-0.6-0.058-1.143-0.387-1.543-0.814c0.429-0.058 0.857-0.015 1.314-0.1 c0.871-0.144 1.714-0.458 2.443-1.016c0.771-0.428 1.399-1.1 2.186-1.542c0.8-0.729 1.742-1.187 2.785-1.415 c0.828-0.156 1.828-0.242 2.7 0.058L131.892 33.393z M175.933 33.592c0.471 0.2 0.7 0.6 1 1 c0.1 0.3 0.4 0.5 0.4 0.8c0.199 0.2 0.2 0.6 0.4 0.829c0.043 0.1 0.1 0.1 0.1 0.2 c-0.471 0-0.928 0.028-1.285 0.271c-0.643 0.243-1.07 0.643-1.643 1.085c-0.572 0.4-1.014 0.872-1.672 1.1 c-0.014-0.443-0.357-0.786-0.357-1.229c-0.143-0.443-0.1-0.857-0.1-1.329c0.057-0.571 0.115-1.143 0.5-1.585 c0.186-0.4 0.629-0.543 0.943-0.801c0.385-0.129 0.785-0.214 1.186-0.328L175.933 33.592z M110.535 34.9 c-0.014 0.342-0.014 0.7 0.1 1.014c-0.643 0.157-1.313 0.314-1.785 0.785c-0.086-0.043-0.086 0.101-0.101 0.1 c0.258-0.414 0.644-0.786 0.972-1.143c0.3-0.171 0.543-0.5 0.829-0.729L110.535 34.936z M140.806 35.3 c-0.029 0.243-0.314 0.442-0.457 0.657l-0.029-0.014c-0.028 0.057-0.114 0.043-0.1 0.113l-0.015-0.014 c-0.1 0.086-0.128 0.171-0.242 0.215c-0.086 0.156-0.357 0.186-0.443 0.328l-0.014-0.015c-0.243 0.257-0.601 0.386-0.829 0.6 c-0.1 0.057-0.285 0.172-0.429 0.172c-0.085 0.1-0.229 0.1-0.285 0.186c-0.929 0.357-1.914 0.571-2.914 0.3 c-0.301 0-0.485 0-0.743-0.101c-0.343-0.214-0.771-0.199-1.186-0.342c-1.028-0.172-2.014-0.186-3.028-0.029 c-0.086 0.1-0.271 0.057-0.4 0.114c-0.528 0.329-1.114 0.571-1.414 1.114c-0.243 0.301-0.485 0.643-0.643 1 c-0.114 0.101-0.101 0.229-0.2 0.344c-0.028 0.143-0.229 0.271-0.243 0.428l-0.014-0.014c-0.015 0.057-0.058 0.029-0.086 0 c0.015-0.199-0.057-0.543 0.071-0.699c0.071-0.572 0.414-1.029 0.643-1.529c0.4-0.485 0.972-0.813 1.429-1.171 c0.828-0.585 1.929-0.614 2.943-0.771c1.071-0.158 2.342-0.101 3.499-0.229c0.614 0 1.215-0.071 1.786-0.214l0.571 0.1 v0.015c0.472 0.1 0.972-0.071 1.457-0.171C139.948 35.7 140.4 35.4 140.8 35.292z M142.507 36.2 c0.328 0.1 0.7 0.2 1 0.271c1.057 0.1 2.2 0.2 3.3 0.229c0 0.1 0 0 0.1 0.029l0.027-0.029 c0.686 0.1 1.4 0.1 2.1 0.243v0.015c1.043 0.2 2.1 0.3 3.1 0.586c0.844 0.2 1.7 0.5 2.5 0.8 c0.357 0.2 0.8 0.4 1.1 0.643c0.656 0.4 1.3 0.9 1.8 1.485c0.129 0.2 0.3 0.3 0.4 0.5 c0.287 0.3 0.5 0.6 0.7 0.927c0.129 0.3 0.4 0.5 0.4 0.786c0.156 0.1 0 0.4 0.2 0.5 c-0.029 0.2 0.2 0.2 0.2 0.258l0.23 0.029c0.027 0.8 0.2 1.8 0.1 2.643c0.127 1.357-0.086 2.656-0.143 4 c-0.043 0.115-0.043 0.286-0.043 0.372c-0.029 0.714-0.215 1.542-0.314 2.3c-0.1 0.472-0.186 0.9-0.33 1.4 c-0.086 0.643-0.355 1.229-0.457 1.871c-0.086 0.328-0.17 0.656-0.256 0.985c-0.086 0.187-0.186 0.399-0.244 0.6 c-0.143 0.285-0.299 0.643-0.471 0.914c-0.029 0.114-0.1 0.215-0.158 0.314c-0.256 0.471-0.684 0.885-0.812 1.4 c-0.043 0.086-0.115 0.156-0.129 0.242c-0.1 0.072-0.129 0.172-0.215 0.271c-0.014 0.101-0.129 0.215-0.186 0.3 c-0.729 0.942-1.314 1.899-2.258 2.671c-0.213 0.257-0.484 0.5-0.699 0.729c-0.029 0-0.057 0-0.057 0 c-0.072 0.057-0.172 0.129-0.271 0.172c-0.586 0.6-1.229 1.043-1.857 1.643c-0.828 0.657-1.643 1.528-2.471 2.2 c-0.572 0.485-1.242 0.843-2.014 0.972c-1.586 0.484-3.244 0.385-4.858 0.299c-0.757-0.1-1.257-0.629-1.757-1.113 c-0.314-0.371-0.786-0.743-1.1-1.172c-0.443-0.472-1.114-0.914-1.558-1.357c-0.186-0.113-0.357-0.229-0.543-0.357 c-0.2-0.228-0.457-0.356-0.7-0.557c-0.885-0.643-1.614-1.343-2.343-2.172c-0.271-0.085-0.313-0.356-0.499-0.527 c-0.072-0.229-0.286-0.344-0.344-0.615c-0.1-0.199-0.271-0.428-0.371-0.656c-0.015-0.115-0.1-0.158-0.143-0.271 c-0.271-0.5-0.543-1.1-0.843-1.629c-0.215-0.371-0.258-0.785-0.457-1.157c-0.114-0.343-0.3-0.671-0.4-1.015 c-0.157-0.328-0.3-0.671-0.414-1.014c-0.4-1.428-0.886-2.914-1.028-4.457c-0.071-0.071 0.014-0.229-0.086-0.314 c-0.086-0.742-0.172-1.314-0.2-2.014c-0.114-0.758-0.071-1.785-0.028-2.529c0.571-0.199 1.157-0.471 1.571-0.985 c0.243-0.157 0.4-0.414 0.671-0.585c0.157-0.058 0.344-0.086 0.515-0.101c-0.043 0.229-0.243 0.429-0.357 0.6 c-0.257 0.5-0.729 0.942-0.714 1.586c0.129 0.2 0.3 0.3 0.5 0.356c0.286 0 0.5 0.1 0.8 0 c-0.114 0.072-0.043 0.172-0.043 0.257c0.143 0.1 0.3 0.1 0.5 0.058c-0.015 0.071-0.029 0.2 0 0.3 c0.971 1.1 2.3 1.7 3.8 1.699c0.071 0.1 0.2 0 0.3 0.015c0.072-0.043 0.144-0.028 0.229-0.028 c1.229-0.243 2.428-0.715 3.628-1.086c0.257-0.186 0.686-0.328 0.6-0.715c-0.471-0.699-1.257-1.027-1.899-1.471 c-0.443-0.143-0.929-0.357-1.386-0.414c-0.829-0.129-1.871-0.071-2.743 0.172c-0.871 0.314-1.671 0.757-2.485 1.1 c-0.071 0.014-0.157 0.057-0.214 0.043c-0.028-0.072 0.086-0.114 0.143-0.143c0.625-0.426 0.602-0.414 1.19-0.824 c0.057-0.043 0.866-0.543 0.952-0.571c0.743-0.357 1.179-0.565 2.243-0.462c0.328 0.1 0.7 0.2 1 0.3 c0.072 0 0.172-0.015 0.229-0.085c0.019-0.35-0.115-0.467-0.396-0.701c-0.515-0.128-0.895-0.281-1.619-0.237 c-0.485 0.1-0.972 0.138-1.429 0.381c-0.271 0.085-0.5 0.224-0.714 0.381c-0.443 0.214-0.524 0.419-0.952 0.6 c-0.172 0.172-0.624 0.448-0.81 0.619c-0.229 0.072-0.567 0.225-0.781 0.195c-0.015-0.214 0.2-0.314 0.243-0.527 c0.057-0.072 0.157-0.101 0.114-0.229c0.171-0.214 0.386-0.472 0.514-0.714c0.423-0.367 0.689-0.682 1.271-0.986 c0.882-0.375 1.843-0.342 2.543-0.356c1.571 0.1 2.5 0.4 3.5 0.313c0.7-0.128 1.457-0.171 2.015-0.643 c0.1-0.1 0.085-0.257 0.143-0.385c-0.129-0.158-0.271-0.158-0.429-0.072c-0.936 0.465-1.275 0.357-2.078 0.4 c-0.79 0.024-1.379-0.054-1.965-0.083c-0.814-0.1-1.447-0.352-2.262-0.209c-0.257-0.043-0.838 0.267-1.066 0.2 c0.015-0.857 0.743-1.6 1.229-2.343c0.5-0.372 1.028-0.756 1.629-0.985c0.356-0.286 0.856-0.472 1.085-0.9 c0.357-0.257 0.586-0.672 0.857-1.028c0.086-0.2 0.086-0.386 0.086-0.628c0.028 0 0.028-0.029 0.028-0.058v-0.043 c0.629-0.372 1.186-0.786 1.786-1.186c0.042-0.058 0.171-0.144 0.186-0.229c0.285-0.229 0.643-0.5 0.843-0.814 c0.171-0.2 0.3 0.1 0.4 0.114C142.063 36.1 142.3 36.1 142.5 36.182z M165.775 36.6 c0.287 0.3 0.7 0.5 1 0.8c-0.016 0.2 0.2 0.3 0.3 0.485c0.145 0.1 0.2 0.3 0.3 0.4 c0.1 0.3 0.2 0.7 0.2 0.957c0.014-0.015-0.043 0.028-0.029 0.043c0.014 0.058-0.029 0.043-0.057 0.1 c-0.201-0.215-0.328-0.486-0.529-0.715c-0.199-0.328-0.527-0.5-0.756-0.758c-0.229-0.143-0.486-0.285-0.586-0.557 c-0.072-0.113-0.215-0.156-0.357-0.113c-0.301 0.128-0.258 0.428-0.443 0.656v0.114c-0.4 0.7-1.371 1.015-2.229 0.9 c-0.342-0.086-0.729-0.015-1.027-0.271c-0.473-0.086-0.688-0.515-1.102-0.715l0.043-0.229c0.029-0.043 0.072-0.1 0.086-0.172 c0.072-0.271 0.115-0.557 0.215-0.828c0.629 0.3 1.5 0.5 2.3 0.472c0.686 0 1.314-0.058 1.73-0.515 c0.213-0.071 0.414-0.171 0.557-0.314C165.49 36.4 165.6 36.5 165.8 36.622z M116.792 37.1 c0.172 0.5 0.6 0.9 1 1.215c0.1 0.1 0.3 0.1 0.4 0.214c0.628 0.3 1.4 0.3 2.1 0.2 c0.1-0.071 0.3-0.1 0.343-0.243c0.157-0.015 0.2 0.2 0.4 0.214c1.1 0.4 2.4 0.8 3.7 0.5 c0.644-0.171 1.344-0.214 1.9-0.557h0.071c-0.043 0.258-0.2 0.457-0.186 0.743c-0.058 0.114-0.028 0.257-0.086 0.4 c-0.186 0.9 0 1.9 0.2 2.67c-0.114 0.115-0.357 0.101-0.5 0.201c-0.914 0.414-1.686 1.342-1.771 2.4 c0.028 0.57-0.157 1.2 0.2 1.585c0.143 0.4 0.5 0.6 0.9 0.729c0.186 0.3 0.6 0.2 1 0.4 c0.029 0.186-0.171 0.3-0.199 0.5c-0.101 0.085-0.086 0.229-0.215 0.3c0.029 0.086-0.071 0.086-0.057 0.2 c-0.114 0.442-0.258 0.886-0.415 1.3c-0.113 0.357-0.313 0.743-0.528 1.029c-0.356 0.471-0.699 0.856-1.343 0.8 c-0.457 0.058-0.557-0.385-0.843-0.586c-0.128-0.256-0.214-0.485-0.328-0.785c-0.114-0.529-0.329-1.129-0.886-1.357 c-0.257-0.057-0.528-0.199-0.829-0.1c-0.399 0.2-0.771 0.443-0.914 0.9c-0.086 0.4 0.1 0.8 0.2 1.2 c0.457 0.7 1.1 1.3 2.1 1.329c0.186 0.1 0.356-0.058 0.543-0.028c0.014 0.257-0.101 0.5-0.215 0.7 c-0.086 0.285-0.257 0.643-0.6 0.657c-0.314 0-0.8 0.1-1.101-0.087c-0.899 0.029-1.229-0.742-1.628-1.385 c-0.814-0.457-1.229-1.199-1.757-1.957c-0.286-0.586-0.558-1.186-0.515-1.886c0.328-0.601 0.957-1.157 1.143-1.856 c0.058-0.172 0.172-0.329 0.215-0.529c0.114-0.186 0.085-0.428 0.214-0.614c0.257-1.028 0.414-2.343 0-3.356 c-0.171-0.757-0.586-1.443-0.957-2.072c-0.257-0.628-0.914-1.027-1.1-1.699c-0.086-0.143-0.114-0.328-0.172-0.486 c0.129-0.285 0.028-0.613 0.229-0.857l0.015 0.016l0.086-0.129C116.706 36.8 116.7 37 116.8 37.092z M111.136 37.2 c0.229 0.4 0.5 0.9 0.9 1.143v0.029c-0.313-0.186-0.785-0.144-1.143-0.101c-0.442 0.157-0.771 0.399-1 0.8 c0 0.328-0.057 0.7 0.3 0.856c0.157 0 0.3 0 0.442-0.101c0.129-0.128 0.101-0.342 0.3-0.399 c0.172-0.114 0.429-0.171 0.629-0.114c0.229 0.2 0.3 0.4 0.2 0.729c-0.086 0.086-0.1 0.215-0.157 0.3 c-0.328 0.514-0.914 0.971-1.6 0.929c-0.686-0.086-1.157-0.614-1.357-1.257c0.015-0.686-0.186-1.387 0.172-1.986 c0.442-0.4 1.028-0.757 1.614-0.957c0.171-0.071 0.4 0.1 0.514-0.071C111.106 37 111.1 37.2 111.1 37.221z M178.433 37.493c0.156-0.043 0.2 0.1 0.3 0.199c0.258 0.4 0.5 0.8 0.7 1.258c-0.086 0.3 0.1 0.5-0.016 0.8 c-0.057 0.043-0.043 0.129-0.086 0.186c-0.213 0.286-0.457 0.572-0.842 0.615l0.014 0.028c-0.385 0.1-0.57-0.271-0.814-0.472 c-0.199-0.3-0.457-0.557-0.828-0.614c-0.557-0.043-1.043 0.3-1.314 0.687c0 0.143-0.043 0.213-0.086 0.3 c0 0.6 0 1.357-0.314 1.884c-0.229 0.187-0.428 0.443-0.713 0.629c-0.516 0.386-1.186 0.486-1.814 0.3 c-0.314-0.229-0.785-0.343-0.986-0.686c-0.242-0.328-0.428-0.672-0.629-0.985c-0.057-0.557-0.586-0.799-0.527-1.428v-0.301 c0.643 0.1 1.3 0.5 2 0.258c0.428-0.129 0.885-0.3 1.256-0.514l0.016 0.014c0.428-0.257 0.898-0.699 1.328-0.957 c0.613-0.4 0.986-0.886 1.67-1.157C177.189 37.2 177.9 37.2 178.4 37.493z M107.893 37.7 c-0.286 0.687-0.314 1.415-0.314 2.129c0.028 0.5 0.2 0.9 0.3 1.343c-0.371 0.028-0.871 0.071-1.057-0.314 c-0.314-0.4-0.344-0.986-0.386-1.5c0.285-0.157 0.386-0.471 0.643-0.657c0.171-0.143 0.285-0.343 0.399-0.528 C107.707 38 107.7 37.8 107.9 37.707z M169.248 38.622c0.156 0.2 0.5 0.4 0.5 0.7 c-0.059 0.043-0.043 0.129-0.016 0.172c0.072 0.7 0.1 1.5 0.6 2.071c-0.059 0.1 0.1 0.2 0.1 0.3 c0.186 0.3 0.4 0.6 0.6 0.973c0.301 0.3 0.5 0.7 1 0.842c0.115 0.2 0.3 0.1 0.4 0.3 c0.285 0.1 0.6 0.1 0.9 0.186c0.229-0.1 0.5 0 0.771-0.114c0.043-0.015 0 0 0 0.1 c-0.115 0.171-0.244 0.342-0.357 0.471c-0.656 0.657-1.686 0.314-2.428 0.014c-0.373-0.186-0.645-0.414-1.029-0.613 c-0.629-0.314-1.471-0.515-2.129-0.258c-0.043-0.028-0.1 0.029-0.129 0.058c0-0.028-0.027-0.015-0.043-0.015 c-0.242 0.243-0.699 0.314-0.855 0.657c-0.129 0.043-0.115 0.144-0.158 0.214c-0.086 0.115-0.186 0.314-0.314 0.4 c0.057 0.156-0.156 0.113-0.129 0.242l-0.014-0.029c-0.043 0.102-0.156 0.115-0.113 0.229l-0.016-0.015 c-0.014 0.1-0.027 0.2-0.113 0.258c-0.043 0.057-0.158-0.043-0.186-0.072c-0.115-0.113-0.271-0.171-0.344-0.285l-0.027 0 c-0.072-0.143-0.244-0.186-0.344-0.314c-0.5-0.313-1.1-0.613-1.729-0.714c-0.344-0.058-0.758-0.1-1.115-0.1 c-0.385 0.2-0.756 0.472-1.07 0.743c-0.043 0.1-0.186 0.186-0.258 0.242c-0.057 0.043-0.1 0.115-0.17 0.1 c-0.045-0.027-0.086-0.027-0.129-0.043l-0.029-0.199c-0.029 0.028-0.014 0.071-0.014 0.1c-0.086-0.928-0.043-1.885-0.301-2.771 c-0.057-0.442-0.086-0.914-0.172-1.341c0.029-0.529-0.014-1.144-0.17-1.629c0.027-0.143 0.186-0.186 0.17-0.357 c0.186 0 0.4 0.3 0.6 0.258c0.686 0.4 1.7 0.4 2.5 0.342c0.643-0.086 1.186-0.442 1.656-0.871 c0.059-0.114 0.158-0.242 0.244-0.343c0.113 0.1 0.4 0.1 0.5 0.3c0.486 0.3 0.7 0.8 1 1.4 c0.113 0.1 0.1 0.2 0.2 0.328c-0.057 0.3 0.2 0.4 0.2 0.715c0.043 0.1 0.1 0.2 0.2 0.2 c0.457-0.142 0.486-0.713 0.801-1.014c0.086-0.428 0.215-0.885 0.086-1.342c-0.072-0.414-0.186-0.871-0.301-1.215 c0.115-0.071 0.3 0 0.5 0C168.761 38 169.1 38.3 169.2 38.622z M132.406 38.25c0.271-0.015 0.6 0.1 0.8 0.1 c-0.086 0.143-0.3 0.214-0.457 0.313c-0.4 0.172-0.571 0.658-0.914 0.857c-0.414 0.258-0.886 0.529-1.2 0.9 c-0.329 0.243-0.442 0.614-0.828 0.729c-0.387 0.4-0.629 0.872-0.972 1.213c-0.429-0.156-0.729 0.4-1.2 0.2 c-0.186-0.143-0.086-0.414-0.071-0.643c0.071-0.243 0.114-0.486 0.214-0.7c0.129-0.442 0.486-0.8 0.586-1.257 c0.329-0.529 0.714-1.057 1.257-1.371c0.187-0.058 0.301-0.201 0.5-0.243c0.715-0.229 1.472-0.129 2.258-0.157V38.25z M113.692 39.292c0.528 0.3 1.1 0.7 1.2 1.3c0.257 0.943-0.114 1.928-0.558 2.728c-0.5 0.429-0.942 0.914-1.628 1 c-0.715 0.042-1.5 0.014-2-0.486c-0.486-0.3-1.043-0.643-0.986-1.343v-0.101c1.243 0.1 2.229-0.543 2.771-1.613 c0-0.157 0.157-0.258 0.129-0.429c0.014-0.144 0.086-0.257 0.057-0.429c-0.057-0.3-0.128-0.7-0.271-1 c-0.085-0.129-0.186-0.285-0.271-0.429C112.664 38.8 113.2 39 113.7 39.292z M137.72 38.7 c-0.186 0.3-0.514 0.543-0.7 0.8c-0.214 0.229-0.442 0.371-0.699 0.515c-0.415 0.2-0.857 0.457-1.187 0.686h-0.071 c-0.985 0.457-1.399 1.557-1.957 2.357c-0.085 0.243-0.229 0.414-0.343 0.643c-0.143 0.214-0.171 0.414-0.429 0.5 c-0.057 0.057-0.186 0.1-0.257 0.113c-0.129 0.144-0.314 0.144-0.472 0.129c-0.014-0.071-0.085-0.057-0.114-0.129 c-0.157-1.342 0.286-2.628 0.814-3.77c0.2-0.286 0.414-0.601 0.629-0.857c0.628-0.399 1.242-0.7 1.871-0.972 c0.985 0.1 1.9 0.1 2.857-0.186C137.777 38.5 137.7 38.7 137.7 38.707z M130.978 41.8 c-0.114 0.385-0.243 0.757-0.286 1.171c-0.114 0.485-0.086 1.043-0.014 1.515c0.1 0.428-0.357 0.613-0.515 0.9 c-0.114 0.143-0.328 0.186-0.357 0.357l-0.028-0.014c-0.186 0.156-0.4 0.242-0.629 0.371c-0.171 0.071-0.157-0.1-0.199-0.186 l0.014-0.015c-0.071-0.028-0.043-0.101-0.071-0.143c0.1-0.357-0.328-0.558-0.171-0.872c0.114-0.643 0.514-1.085 0.699-1.699 c0.486-0.614 0.843-1.314 1.5-1.715C131.092 41.4 130.9 41.6 131 41.764z M128.221 43.535l0.057 0.1 c-0.028 0.086-0.1 0.186-0.129 0.286v0.086c-0.028 0.085-0.057 0.186-0.1 0.271c-0.171 0.43-0.2 0.9-0.257 1.4 c-0.043 0.043-0.114 0.114-0.114 0.187c-0.343 0.156-0.457 0.613-0.872 0.6c-0.643-0.029-1.414-0.115-1.714-0.715 c-0.172-0.613 0.157-1.1 0.457-1.6c0.4-0.285 0.843-0.843 1.443-0.7C127.363 43.4 127.8 43.6 128.2 43.535z M171.261 45.562c0.857 0.7 0.9 1.8 0.9 2.986c-0.072 0.043-0.029 0.129-0.029 0.186h-0.027 c-0.115 0.686-0.301 1.357-0.559 1.957c-0.199 0.243-0.299 0.586-0.441 0.857c0 0.143-0.158 0.229-0.129 0.4 c-0.043 0.042-0.057 0.114-0.043 0.171h-0.029c-0.07 0.586-0.527 0.972-0.527 1.586c-0.158 0.457-0.357 1.071-0.1 1.5 c-0.016 0.1 0.1 0.1 0.1 0.199c-0.057 0.015-0.143-0.028-0.201-0.07c-0.014-0.058-0.143-0.072-0.127-0.143 c-0.314-0.344-0.559-0.744-0.645-1.244c-0.199-0.813-0.1-1.828-0.299-2.643c-0.072-0.543-0.271-0.928-0.572-1.385 c-0.371-0.486-0.9-0.758-1.398-1.043h-0.059v-0.015c-0.186-0.071-0.4-0.086-0.57-0.128c-0.059-0.043-0.186-0.058-0.201-0.144 c0.158-0.414 0.473-0.7 0.643-1.101c0.215-0.399 0.215-0.899 0.215-1.385c0.057-0.043-0.027-0.1 0-0.157 c0.014-0.114-0.057-0.271 0.043-0.357c0.043-0.114 0.129-0.214 0.156-0.328c0.188-0.415 0.543-0.515 0.887-0.729l0.029 0 c0.1-0.1 0.312-0.086 0.441-0.129c0.43-0.086 0.9 0.2 1.3 0.357C170.46 45 170.8 45.4 171.3 45.562z M165.076 45.8 c0.4 0.3 0.8 0.7 1 1.214c0.084 0.1 0.2 0.1 0.1 0.257h-0.016c-0.271 0.314-0.342 0.786-0.729 1 c-0.057 0.286-0.057 0.6 0 0.844c0.059 0.1 0.1 0.3 0.2 0.485c-0.057 0.2 0.1 0.485-0.156 0.5 c-0.414 0-0.844-0.172-1.143-0.4c-0.314-0.256-0.559-0.514-0.943-0.656c-0.057-0.043-0.086-0.157-0.186-0.114 c-0.229 0.128-0.357 0.3-0.414 0.571c-0.258 0.371-0.344 0.857-0.457 1.314v0.199h-0.029c0.014 0.058-0.029 0.115-0.014 0.2 c-0.029 0.07-0.086 0.186-0.086 0.256c0 0.329-0.057 0.586-0.029 0.887c-0.027 0-0.043 0.028-0.043 0.043v0.042 c-0.014 0-0.027 0.015-0.027 0.028c0.043 0.043-0.059-0.057-0.072-0.113c-0.029-0.086-0.1-0.258-0.172-0.344 c-0.014-0.257-0.143-0.514-0.129-0.799c-0.057-0.072-0.07-0.186-0.057-0.258c0.016-0.6-0.043-1.229 0.057-1.8 c-0.027-0.343-0.027-0.687-0.07-1.086c-0.016-0.515-0.086-1.058-0.4-1.457c0.172-0.356 0.328-0.8 0.686-1.071 c0.172-0.314 0.514-0.199 0.742-0.471C163.619 45.1 164.4 45.4 165.1 45.82z M127.806 47.9 c0.015 0.1 0.1 0 0.1 0.058c0.015 0 0.015-0.028 0.015-0.042c0.129 0.1 0 0.4 0.1 0.5 c-0.028 0.6 0 1.1 0.1 1.671c0.071 0.1 0 0.4 0.1 0.558c0 0.1-0.114 0.07-0.157 0.1 c-0.186-0.229-0.015-0.614-0.143-0.844c-0.043-0.014 0.014-0.156-0.043-0.199c-0.129-0.371-0.271-0.729-0.429-1.057 c-0.114 0.014-0.058-0.157-0.157-0.201c-0.015-0.186 0.129-0.271 0.2-0.428c0.057 0 0.071-0.058 0.128-0.071v-0.028h0.101 c0 0.042-0.015 0.1 0 0.128c0.029-0.015 0.029-0.042 0.058-0.086c-0.086 0 0-0.058-0.028-0.1 C127.691 47.9 127.8 47.9 127.8 47.934z M133.32 48.648c-0.043-0.014-0.114-0.014-0.129-0.071l-0.015 0 c-0.1-0.071-0.229-0.186-0.313-0.301c0.157-0.027 0.356-0.186 0.457-0.042V48.648z M127.006 50 c0.043 0.614-0.043 1.071-0.285 1.543c-0.301 0.514-0.929 0.899-1.286 1.414c-0.257 0.285-0.628 0.429-0.914 0.6 c-0.614 0.485-1.229 0.957-1.871 1.414c-0.472 0.485-1 0.985-1.415 1.514l-0.042 0.029c0 0.086-0.058 0.186-0.101 0.3 c-0.043 0.085-0.071 0.171-0.143 0.186c-0.015-0.028-0.172-0.144-0.172-0.271c-0.199-0.558-0.143-1.329 0.157-1.914 c0.015-0.114 0.072-0.214 0.144-0.3c0.485-0.058 1.1 0.1 1.557-0.129c0.371-0.215 0.6-0.514 0.786-0.914 c0.014-0.114 0.085-0.157 0.128-0.258c0.071-0.014 0.086-0.113 0.114-0.186c0.015-0.143-0.057-0.342 0.071-0.414 c0.572-0.071 1.186-0.129 1.586-0.543c0.643-0.571 1.028-1.4 1.286-2.186c0.085-0.071 0.1-0.214 0.143-0.342 c0.028-0.058 0.1 0.1 0.086-0.029C126.863 49.7 127 49.8 127 50.006z M167.562 50.2 c0.414 0.4 0.6 1 0.7 1.571c0.158 0.7 0 1.6 0.2 2.314c0.043 0.3 0.1 0.5 0.2 0.8 c-0.016 0.1 0.1 0.2 0.1 0.257c0.1 0.2 0.3 0.4 0.4 0.629c-0.355 0.086-0.771-0.014-1.113 0 c-0.516-0.156-1.344-0.014-1.443-0.729c-0.672-1.043-1.771-1.671-2.57-2.528c-0.287-0.3-0.416-0.743-0.602-1.114 c0.029-0.242-0.127-0.485 0-0.699c0.129-0.244-0.242-0.229-0.113-0.472c0.527 0.1 0.9 0.6 1.5 0.7 c0.387 0.1 0.6 0.1 1 0.072c0.072 0.1 0.2 0 0.3 0.029c0.143-0.058 0.215-0.144 0.258-0.301 c0.043-0.1 0.043-0.257 0.057-0.4c0.043-0.242-0.043-0.528 0.029-0.714C167.003 49.6 167.2 50 167.6 50.163z M121.621 50.62c0.042 0.3 0.1 0.5 0.2 0.757c-0.043 0.058-0.157 0.043-0.214 0.015c-0.429-0.243-0.672-0.686-0.857-1.144 c0.057-0.242 0.214-0.342 0.414-0.485C121.563 49.8 121.5 50.3 121.6 50.62z M160.775 50.52l0.059 0.043l-0.059 0.1 l0.059 0.028h-0.029c0 0.3 0.1 0.6 0.1 0.843c0.115 0.3 0 0.5 0.2 0.829c0.016 0.3 0.1 0.5 0.2 0.7 c0.199 0.6 0.7 1.1 1.1 1.515c0.285 0.3 0.6 0.6 0.9 0.842c0.572 0.7 1.3 1.3 1.8 2 c0.385 0.4 0.7 0.9 0.9 1.473c0.357 0.8 0.2 1.885-0.4 2.484c-0.229 0.286-0.414 0.658-0.629 0.9 c-0.242 0.186-0.5 0.386-0.729 0.586c-0.057-0.086 0.016-0.172-0.027-0.314c-0.043-0.357-0.172-0.7-0.258-1.057 c-0.256-0.93-1-1.644-1.6-2.344c-0.801-0.856-1.615-1.742-2.086-2.828c-0.229-0.414-0.328-0.886-0.4-1.4 c0.229-0.985 0.457-1.971 0.6-2.999c0.059-0.429 0.186-0.872 0.158-1.3c0.014 0 0 0 0.057-0.015 c-0.07-0.015 0.014-0.043-0.057-0.058c0.043 0 0.07-0.043 0.043-0.086h0.057L160.775 50.52z M128.306 52.1 c0.215 0.5 0.3 1.157-0.028 1.657c-0.043 0.071-0.143 0.086-0.129 0.172l-0.014-0.016c-0.485 0.615-1.3 0.801-2 1.2 c-0.586 0.243-1.229 0.5-1.643 0.972h-0.058c-0.557 0.557-1.314 0.985-1.514 1.856c-0.129 0.243-0.144 0.543-0.286 0.8 c-0.015 0.101-0.043 0.229-0.1 0.286c-0.144 0.043-0.3-0.043-0.415-0.115c-0.071-0.128-0.128-0.143-0.156-0.313 c-0.172-0.329-0.243-0.672-0.2-1.043h0.014c0.271-0.843 0.986-1.3 1.571-1.914c0.614-0.458 1.271-0.943 1.857-1.429 c0.257-0.086 0.386-0.3 0.629-0.429c0.514-0.472 0.886-0.871 1.371-1.399c0.2-0.215 0.357-0.515 0.485-0.758 C128.049 51.5 128.1 51.9 128.3 52.077z M163.189 52.562c-0.014-0.014-0.027 0-0.027 0 c0.1-0.015 0.1 0.1 0.2 0.171c0.229 0.2 0.4 0.5 0.7 0.686c0.057 0.1 0.3 0.2 0.3 0.3 c0.715 0.7 1.6 1.3 1.9 2.243c0.428 0.6 0.6 1.5 0.5 2.214l-0.029-0.015c-0.014 0.072-0.043-0.014-0.086-0.014 c-0.1-0.301-0.314-0.557-0.471-0.857c-0.328-0.386-0.643-0.785-1.014-1.186c-0.502-0.5-0.916-0.957-1.371-1.428 c-0.016-0.102 0.027-0.187-0.059-0.287c-0.199-0.414-0.414-0.729-0.484-1.199C163.218 53 163 52.7 163.2 52.562z M128.978 54.791c0.086 0.6 0.3 1.1 0.5 1.643c0.071 0.4 0.3 0.7 0.1 1.129c-0.029 0.328-0.071 0.686-0.301 0.9 c-0.186 0.314-0.428 0.486-0.771 0.643c0.015 0.101-0.143 0.086-0.186 0.158c-1.229 0.828-2.271 1.957-3 3.313v0.101 c-0.028 0.057-0.085 0.143-0.114 0.214c-0.114 0.286-0.199 0.558-0.242 0.856l-0.015-0.014c-0.028 0.029-0.028 0.086-0.071 0.1 l0.015 0.014c0 0.029-0.086 0-0.029 0.058c-0.014 0.028-0.042 0.015-0.057 0.015c-0.114-0.158-0.101-0.372-0.172-0.615 c-0.128-0.371 0.043-1-0.471-1.17c-0.271-0.272-0.458-0.601-0.571-0.973c-0.043-0.143-0.072-0.3-0.157-0.414 c-0.029-0.428-0.172-0.843-0.072-1.242c0.029-0.344 0.215-0.615 0.243-0.943c0.028-0.028 0.071-0.028 0.071-0.071 c0.086-0.129 0.101-0.314 0.186-0.442c0.629-0.857 1.5-1.701 2.5-2.129c0.601-0.215 1.071-0.543 1.657-0.771 c0.071-0.157 0.271-0.129 0.343-0.257c0.186-0.129 0.258-0.329 0.443-0.429C128.863 54.5 128.9 54.7 129 54.791z M159.589 56.691c0.072 0 0.1 0.1 0.1 0.199c0.213 0.6 0.6 1 1 1.543c0 0.215-0.158 0.386-0.172 0.6 c-0.072-0.042-0.014 0.029-0.059 0.058c-0.084 0.157-0.184 0.315-0.227 0.515c-0.129 0.257-0.244 0.514-0.373 0.8 c-0.027 0.17-0.213 0.271-0.285 0.428c-0.186-0.157-0.371-0.328-0.414-0.557c-0.115-0.271-0.199-0.558-0.242-0.857 c-0.186-0.314 0.07-0.686-0.086-1.029c0.143-0.371 0.271-0.756 0.471-1.128c0.072-0.2 0.115-0.442 0.271-0.585 C159.576 56.6 159.6 56.7 159.6 56.691z M130.349 58.905c0.043 0 0 0.1 0.1 0.2 c0.057 0 0.1 0.1 0.1 0.256c0.271 0.8 0.8 1.5 1.2 2.314c0.343 0.7 0.8 1.3 1.2 1.9 c0.157 0.2 0.3 0.4 0.5 0.558c0.257 0 0.3 0.3 0.5 0.457c1.014 1.1 2.2 1.8 3.4 2.7 c0.429 0.5 1 0.8 1.3 1.271c0.543 0.4 0.9 1 1.5 1.387c1.086 1.1 2.8 0.8 4.3 0.9 c1.257-0.057 2.457-0.285 3.542-0.771c0.486-0.027 0.83-0.313 1.244-0.499c0.414-0.329 0.771-0.687 1.057-1.129l0.113-0.043 c0.529-0.429 1-1 1.457-1.442c0.615-0.529 1.215-1.043 1.801-1.6c0.527-0.286 0.9-0.801 1.314-1.215 c0.715-0.586 1.229-1.457 1.828-2.172c0.258-0.414 0.586-0.813 0.801-1.271c0.199-0.299 0.271-0.713 0.57-0.871 c0.143 0.1 0.1 0.3 0.2 0.4c0.102 0.1 0.1 0.3 0.3 0.429c0.086 0.2 0.1 0.4 0.2 0.6 c0.043 0.3 0.4 0.6 0 0.787c-0.543 0.941-1.256 1.771-1.855 2.685c-0.414 0.515-0.844 0.972-1.271 1.5 c-0.686 0.829-1.387 1.571-2.215 2.313c-0.656 0.9-1.572 1.529-2.414 2.271c-0.271 0.186-0.443 0.387-0.771 0.5 c-0.271 0.143-0.5 0.414-0.844 0.457c-1.127 0.085-2.299 0.356-3.299 0.957c-0.344-0.072-0.6-0.215-0.928-0.301 c-0.571-0.113-1.172-0.128-1.644 0.143c-0.242 0-0.399-0.242-0.614-0.314c-0.656-0.257-1.399-0.399-2.085-0.257 c-0.5 0.058-1.043 0.144-1.515 0.315c-0.3 0.143-0.528-0.172-0.814-0.187c-0.442-0.214-0.771-0.515-1.199-0.771 c-1-0.786-1.843-1.743-2.729-2.643c-0.914-1.171-1.814-2.214-2.528-3.485c-0.4-0.9-0.829-1.572-1.157-2.472 c-0.086-0.343-0.215-0.687-0.357-1.015c-0.186-0.557-0.442-1.156-0.243-1.785c0.015-0.257 0-0.514-0.043-0.757 c0.086-0.171-0.113-0.243-0.071-0.458l0.071 0.072L130.349 58.905z M161.648 59.477c0.314 0.4 0.7 0.7 1 1.1 c-0.043 0.258-0.244 0.472-0.357 0.715c-0.328 0.528-0.658 1.1-0.957 1.686c0.043 0.1 0.1 0.2 0.2 0.2 c0.113 0 0.256-0.015 0.342-0.101c0.543-0.5 0.785-1.186 1.285-1.671c0.172 0.144-0.07 0.243-0.086 0.4 c-0.084 0.328-0.299 0.586-0.414 0.887c-0.186 0.385-0.5 0.729-0.6 1.186c-0.6 0.814-1.328 1.628-1.914 2.4 c-0.242 0.3-0.514 0.614-0.742 0.928c-0.059 0.072-0.143 0.187-0.201 0.286c-0.156 0.187-0.314 0.314-0.441 0.5 c-0.043 0.2 0 0.3 0.1 0.386c0.145 0 0.3 0.1 0.4 0.029c0.9-1.015 1.699-2.144 2.557-3.2 c0.33-0.187 0.457-0.601 0.672-0.872c0.242-0.428 0.643-0.828 0.844-1.328l0.014 0.014l0.029-0.057 c0.057 0.1 0 0.2 0 0.314c-0.057 0.271-0.229 0.4-0.328 0.643c-0.258 0.443-0.6 0.871-0.857 1.3 c-0.428 0.614-0.957 1.043-1.299 1.686c-0.473 0.586-0.857 1.172-1.344 1.629v0.057c-0.371 0.343-0.715 0.843-1.113 1.2 c-0.602 0.643-1.244 1.371-1.9 1.885c-0.215 0.229-0.5 0.387-0.701 0.601c-0.342 0.442-0.871 0.671-1.256 1.1 c-0.271 0.1-0.5-0.129-0.758-0.2c-0.156-0.129-0.457-0.143-0.471-0.4c0.486-0.386 1.027-0.8 1.486-1.214 c0.398-0.442 0.955-0.942 1.355-1.457c0.016-0.144 0.186-0.271 0.1-0.442c-0.084-0.101-0.199-0.215-0.328-0.115 c-0.557 0.486-1.156 1.2-1.713 1.686c-0.201 0.129-0.357 0.314-0.543 0.4c-0.016 0.114-0.172 0.129-0.229 0.2 c-0.258 0.258-0.572 0.472-0.857 0.672c-0.301 0.1-0.658-0.101-0.928-0.2c-0.23-0.071-0.588-0.128-0.701-0.314l0.014 0 c0.672-0.429 1.158-0.972 1.758-1.443c0.758-0.514 1.258-1.385 1.986-1.928c1.285-1.314 2.256-2.572 3.342-3.986 c0.771-1.156 1.471-2.156 2.129-3.356c0.057-0.144 0.113-0.329 0.242-0.458c0.072-0.186 0.172-0.356 0.215-0.57 c0.143-0.243 0.186-0.515 0.357-0.758c0.086-0.113 0.1-0.3 0.285-0.342C161.49 59.2 161.5 59.3 161.6 59.477z M129.435 59.677v0.687c-0.028 0.113-0.058 0.242-0.114 0.356v0.071c-0.058 0.043-0.114 0.114-0.1 0.2 c-0.7 0.929-1.843 1.5-2.457 2.542c-0.215 0.215-0.357 0.516-0.429 0.814c-0.129 0.115-0.029 0.344-0.157 0.4 c-0.015 0.101-0.043 0.187-0.043 0.314c-0.086 0.028-0.043 0.086-0.1 0.129c-0.387-0.129-0.144-0.687-0.215-1.058 c0.071-0.271 0.172-0.528 0.215-0.8c0.199-0.415 0.271-0.729 0.571-1.1c0.028-0.071 0.071-0.128 0.128-0.172 c0.715-0.985 1.529-1.8 2.601-2.472l-0.015 0.015L129.435 59.677z M129.678 61.905c0.114 0.2 0.1 0.4 0.2 0.6 c0.258 1.2 1 2.3 1.5 3.386c0.914 1.4 1.9 2.9 3.1 4.1c0.7 0.8 1.4 1.6 2.3 2.2 c0.314 0.3 0.7 0.5 1 0.742c0.015 0 0 0.101-0.043 0.101l0.015 0.015c-0.386 0.171-0.786 0.399-1.172 0.585l-0.028-0.028 c-0.014 0.028-0.071 0.043-0.057 0.086c-0.114-0.058-0.101 0.156-0.215 0.1c-0.128 0.101-0.314 0-0.471-0.071 c-0.5-0.3-0.814-0.643-1.3-1.071l-0.015 0.014c-0.144-0.199-0.314-0.314-0.528-0.442v-0.042c-0.157-0.115-0.372-0.229-0.515-0.357 c-0.2-0.058-0.386-0.129-0.601-0.115c-0.1 0.072-0.171 0.187-0.143 0.314c0.172 0.3 0.4 0.6 0.7 0.8 c0.528 0.5 1.1 1.1 1.6 1.5c0 0.128-0.157 0.186-0.257 0.229c-0.286 0-0.515-0.229-0.757-0.344 c-0.415-0.428-0.9-0.527-1.215-1.014l-0.028 0.014c-0.186-0.242-0.4-0.442-0.6-0.613c0-0.115-0.043-0.058-0.101-0.143 c-0.143-0.229-0.386-0.387-0.586-0.615l-0.014 0.015c-0.186-0.214-0.371-0.5-0.586-0.7l-0.015 0 c0.029-0.113-0.1-0.143-0.114-0.229c-0.242-0.328-0.5-0.485-0.686-0.828l-0.015 0.015c-0.242-0.257-0.399-0.601-0.628-0.872 c-0.172-0.385-0.472-0.742-0.657-1.128l-0.028 0.015c-0.015-0.158-0.101-0.258-0.129-0.4c-0.129-0.086-0.086-0.258-0.214-0.357 l-0.015 0.015c-0.057-0.386-0.357-0.672-0.442-1.071c-0.114-0.258-0.215-0.586-0.286-0.914c-0.086-0.329-0.257-0.715-0.328-0.986 c0.085-0.199 0.242-0.385 0.356-0.557h0.101c0.157 0.6 0.5 1.1 0.6 1.714c0.314 0.6 0.6 1.3 0.9 1.9 c0.171 0.1 0.2 0.4 0.5 0.286c0.144-0.042 0.215-0.187 0.257-0.329c-0.042-0.256-0.128-0.499-0.242-0.699 c-0.043-0.3-0.229-0.557-0.357-0.814c0-0.157-0.171-0.186-0.157-0.343c-0.043-0.2-0.186-0.414-0.214-0.644 c-0.143-0.342-0.3-0.785-0.457-1.128c-0.028-0.286-0.144-0.542-0.172-0.829C128.863 62.6 129.3 62.2 129.7 61.905z M165.775 63.234c0.244 1.385-0.371 2.542-1.057 3.6c-0.385 0.5-0.514 1.043-0.742 1.6c-0.043 0.443-0.301 0.857-0.129 1.3 c0.1 1.086-0.07 2.043-0.086 3.172c-0.086 0.785-0.314 1.5-0.471 2.229c-0.244 0.557-0.371 1.157-0.771 1.6 c-0.186 0.628-0.658 1.07-1.158 1.5c-0.299 0.242-0.656 0.385-0.941 0.613c-0.814 0.386-1.814 0.614-2.787 0.5 c-0.828 0.043-1.613-0.242-2.484-0.342c-0.658-0.258-1.371-0.529-1.986-0.829c-0.414-0.286-0.914-0.571-1.215-0.929 c-0.6-0.457-1.07-1.157-1.812-1.443c-0.572-0.442-1.059-0.813-1.715-1.043c-0.1-0.057-0.158-0.156-0.215-0.17l0.029-0.016 l-0.029-0.027c0.029-0.043 0.2 0 0.3 0.027v0.016c0.186-0.129 0.4 0.1 0.6 0.042c0.057 0.1 0.1 0 0.2 0.1 c0.484 0.1 0.9 0.3 1.3 0.572c0.1 0 0.2 0.2 0.3 0.242c0.201 0.3 0.5 0.5 0.9 0.643v0.043 c0.342 0.3 0.7 0.5 1.1 0.7c0.357 0.3 0.8 0.5 1.2 0.8c0.273 0.1 0.4 0.3 0.7 0.3 c1.156 0.5 2.4 0.9 3.7 0.771c0.371 0 0.8 0 1.115-0.143c0.271-0.301 0.756-0.414 0.756-0.872 c-0.299-0.243-0.57 0.157-0.9 0.058c-0.941 0.172-1.871 0.071-2.742-0.143c-0.371-0.015-0.699-0.186-1.057-0.271 c-0.314-0.157-0.686-0.243-1.029-0.443c-0.586-0.314-1.143-0.643-1.686-1.057l-0.027 0.028c-0.373-0.314-0.787-0.543-1.143-0.857 c-0.33-0.257-0.672-0.571-1.043-0.714c-0.715-0.386-1.529-0.672-2.371-0.643c-0.416 0-0.814-0.029-1.158 0.2 c-0.156-0.07-0.314-0.199-0.4-0.328c0.016 0.028-0.027-0.057 0-0.086c0.371-0.143 0.729-0.314 1.129-0.357 c0.328-0.199 0.771-0.186 1.129-0.285c0.914-0.114 1.7 0.2 2.6 0.4c0.928 0.4 1.9 0.8 2.8 1.2 c1.428 0.6 2.6 1.6 4.2 1.899c-0.016 0 0 0.1 0 0.072c0.127 0 0.2 0 0.3 0.014v0.029 c0.172-0.015 0.3 0.1 0.457-0.029c0.143 0 0.342-0.057 0.484-0.1c0.301-0.072 0.688-0.072 0.857-0.386 c0.158-0.457 0.486-0.829 0.686-1.257c0.129-0.186 0.043-0.486 0.244-0.658c0.328-1.07 0.342-2.285 0.441-3.441 c-0.07-0.201-0.027-0.457 0-0.701c0.059-0.256 0.029-0.5 0.029-0.756c0.086-0.201 0.115-0.415 0.172-0.615 c0.1-0.729 0.486-1.342 0.801-1.985c0.227-0.528 0.355-1.1 0.527-1.643c0.016-0.129 0.016-0.214 0.158-0.286 c0.17-0.257 0.371-0.6 0.656-0.714c0.4-0.372 0.742-0.657 1.115-1.015C165.732 63 165.8 63.1 165.8 63.234z M123.992 64.391l0.014-0.028c0.072 0.3 0.3 0.8 0.7 1.071c0.243 0.2 0.4 0.4 0.6 0.5 c0.5 0.4 1.2 0.6 1.5 1.171c0.271 0.3 0.4 0.7 0.6 1.101c0.114 0.5 0.1 1 0.2 1.4 c0.029 0.5 0.1 1 0 1.572c0 0.1 0 0.229-0.014 0.356c-0.157 0.1 0 0.2 0 0.3 c-0.028 0.285-0.014 0.629-0.071 0.9c0.114 0.942-0.243 2 0.1 2.828c-0.028 0.2 0.2 0.4 0.1 0.6 c0.144 0.3 0.2 0.6 0.5 0.729c0.058 0.1 0.1 0.3 0.2 0.229c0.129 0.1 0.2 0.2 0.3 0.2 c0.386 0 0.8 0.2 1.2 0.186c1.429-0.258 2.657-1.072 3.972-1.615c0.957-0.585 1.899-1.185 2.914-1.627 c0.785-0.515 1.686-0.758 2.543-1.158c0.456-0.171 0.928-0.214 1.399-0.371c0.485 0 1.071-0.143 1.5 0.1 c0.286 0.1 0.5 0.2 0.8 0.313c-0.015 0.3 0.1 0.7 0.1 1.001c-0.857 0.157-1.557-0.357-2.414-0.157 c-0.515 0.043-0.972 0.314-1.429 0.5l-0.014-0.014c-0.357 0.256-0.844 0.371-1.229 0.628c-0.585 0.2-1.1 0.585-1.571 0.9 c-0.428 0.187-0.8 0.472-1.257 0.601c0.015 0.042-0.057 0.042-0.086 0.042c-0.428 0.187-0.757 0.43-1.186 0.572v0.028 c-0.143 0.086-0.314 0.171-0.485 0.214c-0.157 0.029-0.3 0.101-0.472 0.143c-0.114 0.058-0.3-0.014-0.414 0.1 c-0.442 0.029-0.843 0.215-1.257 0.314c-0.114 0.043-0.271 0.156-0.2 0.3c0.015 0 0.1 0.1 0.1 0 c0.257 0.2 0.6 0.3 1 0.2c0.614-0.101 1.328-0.187 1.828-0.457c0.8-0.43 1.614-0.786 2.429-1.172 c0.143-0.029 0.286-0.2 0.442-0.2c0.101-0.1 0.258-0.143 0.372-0.271c0.813-0.585 1.856-0.929 2.742-1.429 c0.215-0.014 0.372-0.186 0.601-0.156c0.028 0.07-0.101 0.113-0.043 0.214c-0.028-0.015-0.043 0.015-0.058 0 c-0.043 0.157-0.143 0.371-0.057 0.529v0.299c-0.472 0.129-0.929 0.372-1.4 0.457l-0.014 0 c-0.458 0.171-0.915 0.414-1.357 0.643c-0.043 0.114-0.257 0.114-0.314 0.214c-0.714 0.329-1.242 0.786-1.929 1.129l-0.014-0.015 c-0.028 0.143-0.186 0.1-0.243 0.172c-0.257 0.143-0.558 0.357-0.814 0.414v0.028c-0.399 0.214-0.757 0.3-1.2 0.5 c-1.071 0.3-2.214 0.314-3.356 0.085v-0.042c-0.442 0-0.914-0.3-1.371-0.472c-0.558-0.457-1.314-0.714-1.629-1.414 c-0.186-0.172-0.314-0.428-0.543-0.557c-0.014-0.115-0.114-0.158-0.128-0.243c-0.4-0.399-0.415-1.071-0.572-1.601 c0.015-0.656-0.271-1.371-0.071-2.014c0.028-0.371 0.058-0.828 0.172-1.2c0.114-0.528 0.186-1.085 0.271-1.6 c0.071-0.028 0.014-0.143 0.057-0.2c0-0.242 0.114-0.442 0.101-0.686c0.071-0.114 0.071-0.229 0.085-0.371 c0.029-0.015 0.072-0.029 0.072-0.057c0.143 0.1 0.3 0.4 0.6 0.299c0.143-0.057 0.257-0.242 0.257-0.414 c-0.014-0.028-0.071-0.086 0-0.1c-0.057-0.071-0.014-0.243-0.1-0.257c-0.114-0.843-1.086-1.357-1.828-1.786 c-0.801-0.371-1.443-1.071-1.415-2.071c0-0.157 0.015-0.357 0.058-0.528C123.921 64.4 124 64.3 124 64.391z M161.89 67.305c-0.129 0.344-0.258 0.686-0.344 1.043c-0.057 0.486-0.17 1.043-0.17 1.543c-0.115 0.5 0 1.086-0.086 1.6 c0.014 0.814-0.201 1.628-0.357 2.428c-0.072 0.072-0.158 0.2-0.129 0.344c-0.014 0.086-0.086 0.171-0.113 0.3 c-0.129 0.371-0.387 0.729-0.787 0.843c-0.629 0.057-1.357 0.057-1.9-0.186V75.19c-0.27-0.058-0.5-0.214-0.727-0.257 c-0.572-0.328-1.344-0.729-1.871-1.086c0.398-0.386 0.812-0.643 1.17-1.028c1.072-0.814 1.971-1.886 2.887-2.814 c0.613-0.729 1.242-1.356 1.799-2.128c0.258-0.372 0.629-0.758 0.828-1.129C162.076 67 161.9 67.1 161.9 67.305z M130.263 71.605c0.314 0.4 0.7 0.9 1.1 1.186c0.6 0.7 1.3 1.4 2.1 1.928c0.129 0.1 0.3 0.2 0.4 0.3 c-0.2 0.271-0.528 0.372-0.814 0.486c-0.1 0.129-0.285 0.157-0.429 0.229c-0.643 0.229-1.128 0.6-1.785 0.758l-0.157 0.1 c-0.485 0.2-1.129 0.214-1.586-0.043c-0.129-0.043-0.114-0.171-0.243-0.186c-0.071-0.058-0.156-0.144-0.242-0.2 c-0.371-0.785-0.286-1.671-0.271-2.614c0.086-0.871-0.043-1.942 0.1-2.828c-0.014-0.5-0.114-0.929-0.057-1.457l0.057-0.071 C129.034 70 129.5 70.8 130.3 71.605z M145.448 73.591c0.114-0.044 0.1 0.1 0.2 0.058v0.014 c0.771 0.3 1.2 1.3 2 1.7c0.059 0.1 0.1 0.1 0.2 0.2c0.471 0.2 1 0.5 1.5 0.7 c0.043 0.071-0.072 0.171-0.057 0.271c-0.115 0.128-0.172 0.271-0.215 0.428l-0.014-0.014c-0.229 0.285-0.559 0.471-0.943 0.5 c-1.199-0.043-2.242-0.572-3.029-1.429c-0.428-0.399-0.699-0.843-0.871-1.414c-0.114-0.329-0.357-0.757-0.129-1.071 C144.577 73.4 145 73.4 145.4 73.591z M143.705 75.334c0.172 0.2 0.2 0.5 0.4 0.7 c0.028 0.1 0.1 0.2 0.2 0.257c0.243 0.3 0.6 0.6 0.9 0.929v0.057c-0.786 0.428-1.915 0.4-2.7 0.1 c-0.215-0.113-0.429-0.285-0.543-0.5c-0.314-0.328-0.5-0.742-0.528-1.199C142.034 75.2 142.9 75.2 143.7 75.334z M134.137 47.938c0.014-0.021 1.312-0.757 2.316-0.791c1.063-0.035 2 0.3 2.2 0.385c0.079 0.022-0.212 0.104-0.045 0.6 c0.09 0.3 0.1 0.746-0.192 0.994c-0.283 0.248-1.074 0.384-1.401 0.452c-0.328 0.067-1.13 0.067-1.549-0.046 c-0.418-0.113-0.938-0.226-1.321-0.475c0 0 0.112-0.191 0.011-0.496C134.064 48.5 134 48.2 134.1 47.938z M139.302 48.876c0 0 0.079-0.791-0.147-1.073c-0.127-0.16 1 0.6 1 0.756C140.234 48.6 139.5 48.8 139.3 48.876z M146.734 47.648c-0.057 0.043-0.1 0.086-0.129 0.143c0.029 0.5 0.2 1 0.4 1.515c0.271 0.5 0.5 1.2 1 1.5 c0.086 0.1 0.2 0 0.186-0.1c-0.086-0.144-0.043-0.257-0.1-0.415c-0.072-0.186-0.244-0.314-0.287-0.514 c-0.342-0.571-0.527-1.2-0.713-1.828C147.019 47.8 146.9 47.7 146.7 47.648z M145.062 59.4 c-0.314 0.215-0.871 0.186-1.257 0.086c-0.144 0.029-0.129 0.186-0.172 0.286c0.414 0.2 1 0.5 1.4 0.1 c0.057-0.113 0.171-0.199 0.143-0.342C145.22 59.4 145.1 59.4 145.1 59.434z M152.646 42.7 c-0.457-0.058-0.918-0.096-1.404-0.024c-0.658 0.133-1.297 0.424-1.854 0.838c-0.285 0.303-0.457 0.389-0.629 0.6 c-0.486 0.4-0.885 0.943-1.527 1.129c-0.059 0.027-0.143 0.085-0.172 0.143c0.129 0.2 0.3 0.1 0.6 0.2 c0.514-0.172 1.092-0.66 1.477-1.032c0.4-0.442 0.799-0.713 1.398-0.97c0.428-0.114 0.84-0.214 1.168-0.314 c0.6-0.027 1.1 0.1 1.6 0.229c0.543 0.1 0.6 0.2 1.2 0.371c0.285 0.2 0.7 0.2 0.9 0.3 c0.043 0 0.6 0.2 0.9 0.314c0.941 0.1 1.2 0.1 2.096-0.344c0.143 0 0.113-0.072 0.213-0.101 c0.029-0.071 0.072-0.171-0.014-0.214c-0.529 0.057-1.027 0.242-1.543 0.171c-0.371-0.015-0.666-0.083-1.01-0.169 c-0.541-0.199-0.969-0.371-1.568-0.627C153.851 43.1 153.4 43 152.6 42.749z M142.574 45.9 c-0.114 0-0.129 0.058-0.214 0.101l0.028 0.014l-0.058 0.057l0.015 0.015c0.015 0.028-0.015 0.043-0.028 0.1 c-0.043 0.7 0.1 1.4 0 2.1c-0.028 0.914-0.371 1.715-0.1 2.586c0.028 0.6 0.2 1.2 0.1 1.7 c-0.114 0.558-0.186 1.186-0.399 1.729c-0.157 1.015-0.257 2 0.3 2.9c0.286 0.6 1 0.8 1.6 0.9 c0.343-0.029 0.686-0.1 1-0.271c0-0.071 0.029-0.214-0.057-0.3c-0.429-0.015-0.659-0.022-1.103-0.094 c-0.628-0.058-0.935-0.431-1.105-0.987c-0.5-1.543 0.384-2.149 0.355-3.635l-0.04-0.79c-0.043-0.942-0.271-2.11 0-3.081 c0.026-0.85 0.061-1.18-0.039-1.937c0.025-0.386-0.197-0.662-0.183-0.919C142.632 46 142.6 46 142.6 45.892z M150.589 44.759c-0.533 0.08-1.1 0.513-1.545 0.78c-0.289 0.139-0.498 0.309-0.711 0.494c-0.072 0.072-0.217 0.273-0.246 0.4 c-0.014 0.058-0.057 0.2 0.1 0.186h0.029c0.027-0.057 0 0 0.057-0.027c-0.014-0.043 0 0 0.021-0.017 c0.029 0 0.094-0.085 0.109-0.07c0.09-0.045 0.072-0.028 0.1-0.056l0.047-0.046c0.113-0.113 0.031-0.003 0.045-0.045 c0.113-0.079 0.148-0.097 0.264-0.153c0.699-0.5 1.25-0.66 2.352-0.833c1.057-0.054 1.5 0.1 2.2 0.4 c0.855 0.4 1.4 1 1.6 1.144c0.029 0.143-0.877-0.559-1.221-0.621c-1.043-0.343-1.752-0.499-2.91-0.371 c-0.957 0.172-1.904 0.808-2.518 1.508c-0.029 0.027-0.094 0.265-0.15 0.25c-0.072 0.101-0.158 0.243-0.072 0.4 c0.043 0 0.2 0.1 0.3 0.021c0.258-0.231 0.275-0.359 0.488-0.488c1.398-1.096 3.346-1.246 4.859-0.576 c0.229 0.2 0.6 0.3 0.7 0.576c-0.014 0.4 0.2 0.66-0.09 0.92c-0.113 0.028-0.547 0.345-0.631 0.3 c-0.957 0.629-2.141 0.531-3.27 0.288c-0.443-0.071-0.543-0.419-0.729-0.79c-0.129-0.314 0.029-0.838-0.428-0.953 c-0.057 0-0.115 0.043-0.115 0.101c-0.32 0.504-0.057 0.8 0 1.214l-0.043 0.029c-0.314-0.129-0.828-0.101-0.957-0.486 c-0.072-0.043-0.143-0.014-0.199 0.029c-0.086 0.128-0.016 0.3 0 0.414c0.1 0.3 0.3 0.3 0.5 0.4 c0.658 0.1 1.3 0.4 2 0.514c1.172 0.4 2.6 0.2 3.627-0.359c0.602-0.258 1.002-0.526 1.545-0.926 c0.104-0.092 0.262-0.189 0.334-0.232c0.07-0.1 0.037-0.151 0.141-0.275c-0.016-0.186-0.068-0.162-0.203-0.277 c-0.029 0-0.422-0.271-0.438-0.286l-0.279-0.202c0.215 0.1 1.2 0.1 1.4 0.047c0.486-0.242 0.92-0.224 1.205-0.724 c0.129-0.057 0.172-0.229 0.301-0.286c0.1-0.186 0.256-0.371 0.314-0.557c0.043-0.1 0-0.214-0.072-0.3 c-0.271 0.058-0.385 0.356-0.486 0.558c-0.441 0.457-0.895 0.712-1.523 0.783c-0.686-0.1-1.02-0.247-1.77-0.879 c-0.229-0.072-0.824-0.49-1.066-0.633C152.605 44.5 151.7 44.6 150.6 44.759z M155.421 47.8 c-0.164 0.186-0.42 0.292-0.488 0.36c-0.09 0.012-0.035-0.545-0.078-0.669C154.835 47.4 155.4 47.8 155.4 47.81z M148.517 56.506c-0.443-0.043-0.344 0.457-0.473 0.729c-0.428 0.586-1.07 0.474-1.916 0.579l-0.827 0.2 c-0.085 0.086-0.242 0.128-0.171 0.257c0.072 0 0.1 0.1 0.2 0.085c0.372-0.016 0.807-0.023 1.065-0.037 c0.699-0.043 1.2 0 1.74-0.355c0.475-0.303 0.51-0.863 0.453-1.32L148.517 56.506z M138.903 57.4 c-0.129 0.4 0.1 0.8 0.3 1.015c0.644 0.7 1.6 0 2.3 0.014c0.472-0.113 0.9 0.1 1.4 0.3 c0.072-0.014 0.115-0.128 0.101-0.214c-0.058-0.086-0.157-0.171-0.257-0.214c-0.629-0.629-1.696-0.555-2.468-0.283 c-0.246 0.055-0.41 0.184-0.711 0.039c-0.2-0.156-0.35-0.428-0.308-0.643C139.175 57.3 139 57.3 138.9 57.405z M145.417 60.277c-0.543-0.158-0.9 0.242-1.343 0.356c-1.04-0.723-1.661 0.108-2.532 0.337c-0.3 0.201-0.896-0.051-1.125 0.2 c-0.057 0.1 0 0.2 0 0.2c0.429 0.2 0.9 0.2 1.3 0.014c0.528-0.143 0.626-0.354 1.167-0.463l0.367-0.021 c0.186-0.043 0.3 0 0.5 0.142c0.233 0.1 0.2 0.2 0.6 0.101c0.957-0.771 1.8 0.4 2.8 0.3 c0.1-0.114 0.3 0 0.371-0.129c0.014-0.1-0.014-0.257-0.129-0.299C146.617 61.1 146.2 60.4 145.4 60.277z M149.46 61.8 c-0.301 0.2 0.2 0.4 0 0.629c-0.371 0.171-0.801 0.285-1.201 0.357c-1.041 0.186-1.971-0.387-2.971-0.443 c-0.556 0.014-0.885 0.429-1.428 0.485c-0.6-0.257-1.3-0.557-2.028-0.399c-0.629 0.086-1.186 0.343-1.771 0.4 c-0.557 0.015-1.157 0.158-1.628-0.186l0.085-0.113c0.015-0.072 0.029-0.186-0.043-0.229c-0.313-0.158-0.499 0.171-0.714 0.3 c-0.1 0.286-0.442 0.371-0.386 0.7c0.058 0.1 0.2 0.2 0.3 0.171c0.129-0.128 0.2-0.242 0.386-0.328 c0.144-0.043 0.3 0 0.4 0.072c1.186 0.7 2.177-0.137 3.349-0.252c0.657-0.171 1.3 0.2 1.8 0.4 c0.457 0.2 0.896-0.118 1.211-0.347c0.343-0.314 0.919-0.143 1.3 0c0.543 0.4 1.4 0.4 2.1 0.2 c0.572-0.186 1.229-0.258 1.801-0.486l0.342 0.199c0.1 0.1 0.2 0 0.258-0.1c-0.057-0.156-0.129-0.314-0.258-0.428 C150.13 62.2 149.9 61.8 149.5 61.791z M147.931 64.091c-0.672 0.214-1.371 0.378-2.127 0.4 c-0.888 0.087-1.558-0.037-2.272-0.151c-1.086-0.1-2.015 0.373-3.086 0.131c-0.344 0-0.529-0.271-0.857-0.3 c-0.101-0.058-0.172 0.042-0.186 0.128c-0.071 0.1 0.1 0.2 0.2 0.357c0.686 0.6 1.8 0.6 2.6 0.4 c0.68-0.183 1.291-0.018 1.935-0.032c1.229 0.4 2.5 0 3.655-0.303c0.215-0.1 0.609-0.18 0.652-0.494 C148.345 64 148.1 63.9 147.9 64.091z"/></svg>